<?xml version="1.0" encoding="UTF-8"?>
<svg width="1600px" height="854px" viewBox="0 0 1600 854" version="1.1" xmlns="http://www.w3.org/2000/svg" xmlns:xlink="http://www.w3.org/1999/xlink">
    <!-- Generator: Sketch 50.2 (55047) - http://www.bohemiancoding.com/sketch -->
    <title>Group 13</title>
    <desc>Created with Sketch.</desc>
    <defs>
        <linearGradient x1="100%" y1="50%" x2="0%" y2="50%" id="linearGradient-1">
            <stop stop-color="#0055FF" offset="0%"></stop>
            <stop stop-color="#508BFF" offset="100%"></stop>
        </linearGradient>
        <rect id="path-2" x="0" y="0" width="1605" height="854"></rect>
    </defs>
    <g id="Page-1" stroke="none" stroke-width="1" fill="none" fill-rule="evenodd">
        <g id="Landing-page-Final" transform="translate(0.000000, -2217.000000)">
            <g id="Group-13" transform="translate(-2.000000, 2217.000000)">
                <mask id="mask-3" fill="white">
                    <use xlink:href="#path-2"></use>
                </mask>
                <use id="Mask" fill="url(#linearGradient-1)" xlink:href="#path-2"></use>
                <g mask="url(#mask-3)" fill="#0156FF" fill-opacity="0.19067029">
                    <g transform="translate(-175.000000, -63.000000)">
                        <path d="M4.91536791,787.770787 C88.231277,764.253933 153.657413,746.604494 153.657413,746.604494 C153.657413,746.604494 129.865368,487.785393 385.699459,505.426966 C421.391504,446.603371 445.18355,352.473034 445.18355,352.473034 C445.18355,352.473034 410.79605,346 361.151732,346 C221.509686,346 -38.9539503,397.210112 4.91536791,787.770787" id="Fill-1"></path>
                        <path d="M1174.91537,441.770787 C1258.23128,418.253933 1323.65741,400.604494 1323.65741,400.604494 C1323.65741,400.604494 1299.86537,141.785393 1555.69946,159.426966 C1591.3915,100.603371 1615.18355,6.47303371 1615.18355,6.47303371 C1615.18355,6.47303371 1580.79605,0 1531.15173,0 C1391.50969,0 1131.04605,51.2101124 1174.91537,441.770787" id="Fill-1-Copy"></path>
                        <path d="M58,882.114607 C58,934.111236 100.596591,976.252809 153.168182,976.252809 C205.755682,976.252809 248.368182,934.111236 248.368182,882.114607 C248.368182,830.133708 205.755682,788 153.168182,788 C100.596591,788 58,830.133708 58,882.114607" id="Fill-4"></path>
                        <path d="M1229,536.114607 C1229,588.111236 1271.59659,630.252809 1324.16818,630.252809 C1376.75568,630.252809 1419.36818,588.111236 1419.36818,536.114607 C1419.36818,484.133708 1376.75568,442 1324.16818,442 C1271.59659,442 1229,484.133708 1229,536.114607" id="Fill-4-Copy"></path>
                        <path d="M538.723864,635.558427 C538.723864,635.558427 565.021591,894.157303 309.020455,878.883146 C273.901136,938.044944 251,1032.40337 251,1032.40337 C251,1032.40337 282.7625,1038.07416 329.240909,1038.11348 L329.885227,1038.11348 C456.680682,1038.08202 691.864773,995.964045 692.819318,684.298876 L692.819318,680.547191 C692.739773,653.420225 690.894318,624.311236 687.076136,593 C603.990909,617.28764 538.723864,635.558427 538.723864,635.558427" id="Fill-7"></path>
                        <path d="M1708.72386,289.558427 C1708.72386,289.558427 1735.02159,548.157303 1479.02045,532.883146 C1443.90114,592.044944 1421,686.403371 1421,686.403371 C1421,686.403371 1452.7625,692.074157 1499.24091,692.113483 L1499.88523,692.113483 C1626.68068,692.082022 1861.86477,649.964045 1862.81932,338.298876 L1862.81932,334.547191 C1862.73977,307.420225 1860.89432,278.311236 1857.07614,247 C1773.99091,271.28764 1708.72386,289.558427 1708.72386,289.558427" id="Fill-7-Copy"></path>
                        <path d="M536.289371,406.007865 C483.709826,406.511236 441.518916,449.038202 442.004144,501.011236 C442.497326,553 485.531416,594.724719 538.079144,594.244944 C590.650735,593.741573 632.873462,551.214607 632.364371,499.225843 C631.887098,447.551685 589.338235,406 537.196189,406 C536.893916,406 536.591644,406 536.289371,406.007865" id="Fill-10"></path>
                        <path d="M1706.28937,60.0078652 C1653.70983,60.511236 1611.51892,103.038202 1612.00414,155.011236 C1612.49733,207 1655.53142,248.724719 1708.07914,248.244944 C1760.65073,247.741573 1802.87346,205.214607 1802.36437,153.225843 C1801.8871,101.551685 1759.33823,60 1707.19619,60 C1706.89392,60 1706.59164,60 1706.28937,60.0078652" id="Fill-10-Copy"></path>
                    </g>
                </g>
            </g>
        </g>
    </g>
</svg>