<?xml version="1.0" encoding="UTF-8"?>
<svg width="450px" height="422px" viewBox="0 0 450 422" version="1.1" xmlns="http://www.w3.org/2000/svg" xmlns:xlink="http://www.w3.org/1999/xlink">
    <!-- Generator: Sketch 50.2 (55047) - http://www.bohemiancoding.com/sketch -->
    <title>illustration 2</title>
    <desc>Created with Sketch.</desc>
    <defs>
        <linearGradient x1="72.1391124%" y1="75.3045822%" x2="-39.0774202%" y2="-51.9308625%" id="linearGradient-1">
            <stop stop-color="#FFFFFF" offset="0%"></stop>
            <stop stop-color="#E2EBFB" stop-opacity="0" offset="100%"></stop>
        </linearGradient>
        <linearGradient x1="50.0003633%" y1="-24.2323773%" x2="50.0003633%" y2="68.7709756%" id="linearGradient-2">
            <stop stop-color="#FFFFFF" offset="0%"></stop>
            <stop stop-color="#E2EBFB" stop-opacity="0" offset="100%"></stop>
        </linearGradient>
        <linearGradient x1="50.0023352%" y1="14.6257711%" x2="50.0023352%" y2="88.7214726%" id="linearGradient-3">
            <stop stop-color="#23CF5F" offset="0%"></stop>
            <stop stop-color="#E2EBFB" stop-opacity="0" offset="100%"></stop>
        </linearGradient>
        <linearGradient x1="50.0023352%" y1="14.6257711%" x2="50.0023352%" y2="88.7214726%" id="linearGradient-4">
            <stop stop-color="#E7E7E7" offset="0%"></stop>
            <stop stop-color="#E2EBFB" stop-opacity="0" offset="100%"></stop>
        </linearGradient>
        <linearGradient x1="50.0023352%" y1="14.6257711%" x2="50.0023352%" y2="88.7214726%" id="linearGradient-5">
            <stop stop-color="#ECEEF0" offset="0%"></stop>
            <stop stop-color="#E2EBFB" stop-opacity="0" offset="100%"></stop>
        </linearGradient>
        <linearGradient x1="131.449659%" y1="129.101457%" x2="-64.7696737%" y2="-61.4967604%" id="linearGradient-6">
            <stop stop-color="#0055FF" offset="0%"></stop>
            <stop stop-color="#E2EBFB" stop-opacity="0" offset="100%"></stop>
        </linearGradient>
        <circle id="path-7" cx="20" cy="20" r="20"></circle>
        <filter x="-28.8%" y="-16.2%" width="157.5%" height="157.5%" filterUnits="objectBoundingBox" id="filter-8">
            <feOffset dx="0" dy="5" in="SourceAlpha" result="shadowOffsetOuter1"></feOffset>
            <feGaussianBlur stdDeviation="3" in="shadowOffsetOuter1" result="shadowBlurOuter1"></feGaussianBlur>
            <feColorMatrix values="0 0 0 0 0.352941176   0 0 0 0 0.568627451   0 0 0 0 0.992156863  0 0 0 0.259624094 0" type="matrix" in="shadowBlurOuter1"></feColorMatrix>
        </filter>
        <circle id="path-9" cx="10" cy="10" r="10"></circle>
        <filter x="-27.5%" y="-17.5%" width="155.0%" height="155.0%" filterUnits="objectBoundingBox" id="filter-10">
            <feOffset dx="0" dy="2" in="SourceAlpha" result="shadowOffsetOuter1"></feOffset>
            <feGaussianBlur stdDeviation="1.5" in="shadowOffsetOuter1" result="shadowBlurOuter1"></feGaussianBlur>
            <feColorMatrix values="0 0 0 0 0.352941176   0 0 0 0 0.568627451   0 0 0 0 0.992156863  0 0 0 0.259624094 0" type="matrix" in="shadowBlurOuter1"></feColorMatrix>
        </filter>
        <circle id="path-11" cx="15" cy="15" r="15"></circle>
        <filter x="-30.0%" y="-20.0%" width="160.0%" height="160.0%" filterUnits="objectBoundingBox" id="filter-12">
            <feOffset dx="0" dy="3" in="SourceAlpha" result="shadowOffsetOuter1"></feOffset>
            <feGaussianBlur stdDeviation="2.5" in="shadowOffsetOuter1" result="shadowBlurOuter1"></feGaussianBlur>
            <feColorMatrix values="0 0 0 0 0.137254902   0 0 0 0 0.811764706   0 0 0 0 0.37254902  0 0 0 0.199445199 0" type="matrix" in="shadowBlurOuter1"></feColorMatrix>
        </filter>
        <circle id="path-13" cx="9" cy="9" r="9"></circle>
        <filter x="-30.6%" y="-19.4%" width="161.1%" height="161.1%" filterUnits="objectBoundingBox" id="filter-14">
            <feOffset dx="0" dy="2" in="SourceAlpha" result="shadowOffsetOuter1"></feOffset>
            <feGaussianBlur stdDeviation="1.5" in="shadowOffsetOuter1" result="shadowBlurOuter1"></feGaussianBlur>
            <feColorMatrix values="0 0 0 0 0.137254902   0 0 0 0 0.811764706   0 0 0 0 0.37254902  0 0 0 0.199445199 0" type="matrix" in="shadowBlurOuter1"></feColorMatrix>
        </filter>
        <polygon id="path-15" points="1.82627451 0.378981021 3.68341736 0.378981021 3.68341736 3.72093023 1.82627451 3.72093023"></polygon>
        <polygon id="path-17" points="1.6510412 0.378981021 3.50818406 0.378981021 3.50818406 3.72093023 1.6510412 3.72093023"></polygon>
        <linearGradient x1="131.449659%" y1="129.101457%" x2="-64.7696737%" y2="-61.4967604%" id="linearGradient-19">
            <stop stop-color="#23CF5F" offset="0%"></stop>
            <stop stop-color="#E2EBFB" stop-opacity="0" offset="100%"></stop>
        </linearGradient>
        <linearGradient x1="-64.7696737%" y1="-61.4967604%" x2="131.449659%" y2="129.101457%" id="linearGradient-20">
            <stop stop-color="#3DD473" offset="0%"></stop>
            <stop stop-color="#E2EBFB" stop-opacity="0" offset="100%"></stop>
        </linearGradient>
        <path d="M33.1670321,53 C32.1887327,53 31.2634846,52.5491683 30.6686822,51.7759343 L22.6354781,41.3257613 C21.59064,39.9666233 21.8626396,38.0313241 23.2424193,37.001674 C24.6244469,35.9715811 26.5877893,36.241283 27.633077,37.5995353 L32.9166126,44.4718405 L46.2050285,23.4545794 C47.1199361,22.0086408 49.0518075,21.5662234 50.5228532,22.4661154 C51.9921005,23.3668931 52.4407874,25.2711921 51.5254302,26.7184594 L35.8276825,51.5452041 C35.2823346,52.4083387 34.3409013,52.9512854 33.3100004,52.9973428 C33.2618947,52.9991143 33.2146882,53 33.1670321,53 Z" id="path-21"></path>
    </defs>
    <g id="Page-1" stroke="none" stroke-width="1" fill="none" fill-rule="evenodd">
        <g id="Landing-page-Final" transform="translate(-185.000000, -1342.000000)">
            <g id="illustration-2" transform="translate(188.000000, 1342.000000)">
                <g id="Group-3" transform="translate(11.000000, 74.000000)" fill-rule="nonzero">
                    <polygon id="Shape" fill="url(#linearGradient-1)" points="0 45.1789913 78.3875036 0 156.734329 45.2196199 78.3875036 90.4392398"></polygon>
                    <polygon id="Shape-Copy" fill="url(#linearGradient-1)" points="163 166.178991 241.387504 121 319.734329 166.21962 241.387504 211.43924"></polygon>
                    <ellipse id="Oval" fill-opacity="0.363422781" fill="#0055FF" opacity="0.15" cx="241" cy="166.5" rx="38" ry="22.5"></ellipse>
                    <path d="M0,214.729001 C23.1867551,230.330379 49.7498271,241.340727 78.3875036,246.338043 L78.3875036,90.4055173 L0,45.1858974 L0,214.729001 Z" id="Shape" fill="url(#linearGradient-2)"></path>
                    <path d="M162.779156,336.017462 C185.965911,351.61884 212.528983,362.629188 241.16666,367.626505 L241.16666,211.693979 L162.779156,166.474359 L162.779156,336.017462 Z" id="Shape-Copy-2" fill="url(#linearGradient-2)"></path>
                    <path d="M78.6104218,246.297415 C90.0817638,248.288215 101.878534,249.344559 113.919375,249.344559 C128.685677,249.344559 143.126551,247.760044 156.997925,244.794157 L156.957247,45.1858974 L78.6104218,90.4055173 L78.6104218,246.297415 Z" id="Shape" fill="url(#linearGradient-3)"></path>
                    <path d="M241.389578,367.585876 C252.86092,369.576677 264.65769,370.63302 276.698532,370.63302 C291.464833,370.63302 305.905707,369.048505 319.777082,366.082618 L319.736403,166.474359 L241.389578,211.693979 L241.389578,367.585876 Z" id="Shape-Copy-3" fill="url(#linearGradient-4)"></path>
                </g>
                <g id="flaticon1527691789-svg" transform="translate(285.000000, 79.000000)"></g>
                <g id="Group-3-Copy" transform="translate(113.000000, 0.000000)" fill-rule="nonzero">
                    <polygon id="Shape" fill="url(#linearGradient-1)" points="0 45.1789913 78.3875036 0 156.734329 45.2196199 78.3875036 90.4392398"></polygon>
                    <polygon id="Shape-Copy" fill="url(#linearGradient-1)" points="162.779156 166.467453 241.16666 121.288462 319.513485 166.508081 241.16666 211.727701"></polygon>
                    <path d="M0,214.729001 C23.1867551,230.330379 49.7498271,241.340727 78.3875036,246.338043 L78.3875036,90.4055173 L0,45.1858974 L0,214.729001 Z" id="Shape" fill="url(#linearGradient-2)"></path>
                    <path d="M162.779156,336.017462 C185.965911,351.61884 212.528983,362.629188 241.16666,367.626505 L241.16666,211.693979 L162.779156,166.474359 L162.779156,336.017462 Z" id="Shape-Copy-2" fill="url(#linearGradient-2)"></path>
                    <path d="M78.6104218,246.297415 C90.0817638,248.288215 101.878534,249.344559 113.919375,249.344559 C128.685677,249.344559 143.126551,247.760044 156.997925,244.794157 L156.957247,45.1858974 L78.6104218,90.4055173 L78.6104218,246.297415 Z" id="Shape" fill="url(#linearGradient-5)"></path>
                    <path d="M241.389578,367.585876 C252.86092,369.576677 264.65769,370.63302 276.698532,370.63302 C291.464833,370.63302 305.905707,369.048505 319.777082,366.082618 L319.736403,166.474359 L241.389578,211.693979 L241.389578,367.585876 Z" id="Shape-Copy-3" fill="url(#linearGradient-3)"></path>
                </g>
                <g id="Group-21" transform="translate(262.279963, 45.279963) rotate(-46.000000) translate(-262.279963, -45.279963) translate(242.279963, 25.279963)">
                    <g id="Oval-3">
                        <use fill="black" fill-opacity="1" filter="url(#filter-8)" xlink:href="#path-7"></use>
                        <use fill="url(#linearGradient-6)" fill-rule="evenodd" xlink:href="#path-7"></use>
                    </g>
                    <circle id="Oval-3-Copy" fill="#0055FF" cx="20" cy="20" r="17.1014493"></circle>
                    <path d="M21.91382,29.5652174 L15.858332,29.5652174 C14.4665768,29.5652174 13.3333333,28.4162469 13.3333333,27.007046 L13.3333333,25.6967631 L16.9284505,25.6967631 L16.9284505,25.9250354 L21.91382,25.9250354 C22.8727183,25.9250354 23.6512596,25.1352133 23.6512596,24.1642952 C23.6512596,23.5327419 23.1447569,23.0183683 22.5210221,23.0183683 L18.0586881,23.0183683 C15.4540317,23.0183683 13.3333333,20.871087 13.3333333,18.2322594 L13.3333333,17.5763571 C13.3333333,14.5966429 15.7260702,12.173913 18.6658901,12.173913 L24.7198751,12.173913 C26.1131333,12.173913 27.2463768,13.3228835 27.2463768,14.7320844 L27.2463768,16.2188979 L23.6512596,16.2188979 L23.6512596,15.8140951 L18.6658901,15.8140951 C17.7084948,15.8140951 16.9284505,16.605439 16.9284505,17.5763571 L16.9284505,18.2322594 C16.9284505,18.8653346 17.4349533,19.3781863 18.0586881,19.3781863 L22.5210221,19.3781863 C25.1256785,19.3781863 27.2463768,21.5254676 27.2463768,24.1642952 C27.2463768,27.1424876 24.8536399,29.5652174 21.91382,29.5652174" id="Fill-219" fill="#FFFFFF"></path>
                    <polygon id="Fill-220" fill="#FFFFFF" points="18.5507246 31.884058 22.0289855 31.884058 22.0289855 10.4347826 18.5507246 10.4347826"></polygon>
                </g>
                <g id="Group-21-Copy-3" transform="translate(432.139982, 169.139982) rotate(-46.000000) translate(-432.139982, -169.139982) translate(422.139982, 159.139982)">
                    <g id="Oval-3">
                        <use fill="black" fill-opacity="1" filter="url(#filter-10)" xlink:href="#path-9"></use>
                        <use fill="url(#linearGradient-6)" fill-rule="evenodd" xlink:href="#path-9"></use>
                    </g>
                    <circle id="Oval-3-Copy" fill="#0055FF" cx="10" cy="10" r="8.55072464"></circle>
                    <path d="M10.95691,14.7826087 L7.92916602,14.7826087 C7.2332884,14.7826087 6.66666667,14.2081234 6.66666667,13.503523 L6.66666667,12.8483815 L8.46422527,12.8483815 L8.46422527,12.9625177 L10.95691,12.9625177 C11.4363592,12.9625177 11.8256298,12.5676066 11.8256298,12.0821476 C11.8256298,11.7663709 11.5723784,11.5091842 11.260511,11.5091842 L9.02934403,11.5091842 C7.72701583,11.5091842 6.66666667,10.4355435 6.66666667,9.11612972 L6.66666667,8.78817854 C6.66666667,7.29832144 7.8630351,6.08695652 9.33294506,6.08695652 L12.3599376,6.08695652 C13.0565667,6.08695652 13.6231884,6.66144177 13.6231884,7.36604222 L13.6231884,8.10944895 L11.8256298,8.10944895 L11.8256298,7.90704753 L9.33294506,7.90704753 C8.85424739,7.90704753 8.46422527,8.30271948 8.46422527,8.78817854 L8.46422527,9.11612972 C8.46422527,9.43266729 8.71747663,9.68909315 9.02934403,9.68909315 L11.260511,9.68909315 C12.5628392,9.68909315 13.6231884,10.7627338 13.6231884,12.0821476 C13.6231884,13.5712438 12.42682,14.7826087 10.95691,14.7826087" id="Fill-219" fill="#FFFFFF"></path>
                    <polygon id="Fill-220" fill="#FFFFFF" points="9.27536232 15.942029 11.0144928 15.942029 11.0144928 5.2173913 9.27536232 5.2173913"></polygon>
                </g>
                <g id="Group-21-Copy-7" transform="translate(156.000000, 356.000000)">
                    <g id="Oval-3">
                        <use fill="black" fill-opacity="1" filter="url(#filter-12)" xlink:href="#path-11"></use>
                        <use fill="#71ED9D" fill-rule="evenodd" xlink:href="#path-11"></use>
                    </g>
                    <circle id="Oval-3-Copy" fill="#23CF5F" cx="15" cy="15" r="12.826087"></circle>
                    <path d="M16.435365,22.173913 L11.893749,22.173913 C10.8499326,22.173913 10,21.3121852 10,20.2552845 L10,19.2725723 L12.6963379,19.2725723 L12.6963379,19.4437765 L16.435365,19.4437765 C17.1545388,19.4437765 17.7384447,18.85141 17.7384447,18.1232214 C17.7384447,17.6495564 17.3585677,17.2637762 16.8907666,17.2637762 L13.544016,17.2637762 C11.5905237,17.2637762 10,15.6533153 10,13.6741946 L10,13.1822678 C10,10.9474822 11.7945527,9.13043478 13.9994176,9.13043478 L18.5399063,9.13043478 C19.58485,9.13043478 20.4347826,9.99216265 20.4347826,11.0490633 L20.4347826,12.1641734 L17.7384447,12.1641734 L17.7384447,11.8605713 L13.9994176,11.8605713 C13.2813711,11.8605713 12.6963379,12.4540792 12.6963379,13.1822678 L12.6963379,13.6741946 C12.6963379,14.1490009 13.0762149,14.5336397 13.544016,14.5336397 L16.8907666,14.5336397 C18.8442589,14.5336397 20.4347826,16.1441007 20.4347826,18.1232214 C20.4347826,20.3568657 18.64023,22.173913 16.435365,22.173913" id="Fill-219" fill="#FFFFFF"></path>
                    <polygon id="Fill-220" fill="#FFFFFF" points="13.9130435 23.9130435 16.5217391 23.9130435 16.5217391 7.82608696 13.9130435 7.82608696"></polygon>
                </g>
                <g id="Group-21-Copy-8" transform="translate(0.000000, 115.000000)">
                    <g id="Oval-3">
                        <use fill="black" fill-opacity="1" filter="url(#filter-14)" xlink:href="#path-13"></use>
                        <use fill="#71ED9D" fill-rule="evenodd" xlink:href="#path-13"></use>
                    </g>
                    <circle id="Oval-3-Copy" fill="#23CF5F" cx="9" cy="9" r="7.69565217"></circle>
                    <path d="M9.86121901,13.3043478 L7.13624942,13.3043478 C6.50995956,13.3043478 6,12.7873111 6,12.1531707 L6,11.5635434 L7.61780274,11.5635434 L7.61780274,11.6662659 L9.86121901,11.6662659 C10.2927233,11.6662659 10.6430668,11.310846 10.6430668,10.8739328 C10.6430668,10.5897338 10.4151406,10.3582657 10.1344599,10.3582657 L8.12640963,10.3582657 C6.95431424,10.3582657 6,9.39198916 6,8.20451675 L6,7.90936069 C6,6.56848929 7.07673159,5.47826087 8.39965056,5.47826087 L11.1239438,5.47826087 C11.75091,5.47826087 12.2608696,5.99529759 12.2608696,6.62943799 L12.2608696,7.29850406 L10.6430668,7.29850406 L10.6430668,7.11634277 L8.39965056,7.11634277 C7.96882265,7.11634277 7.61780274,7.47244754 7.61780274,7.90936069 L7.61780274,8.20451675 C7.61780274,8.48940056 7.84572897,8.72018384 8.12640963,8.72018384 L10.1344599,8.72018384 C11.3065553,8.72018384 12.2608696,9.68646041 12.2608696,10.8739328 C12.2608696,12.2141194 11.184138,13.3043478 9.86121901,13.3043478" id="Fill-219" fill="#FFFFFF"></path>
                    <polygon id="Fill-220" fill="#FFFFFF" points="8.34782609 14.3478261 9.91304348 14.3478261 9.91304348 4.69565217 8.34782609 4.69565217"></polygon>
                </g>
                <g id="Group" transform="translate(219.000000, 173.000000)">
                    <path d="M23.9374571,64.067907 C22.9866,64.067907 22.0506,63.6306977 21.4470286,62.8009302 L10.7833143,48.1795349 C9.95317143,47.0427907 9.99774286,45.4855814 10.8928857,44.3990698 L24.8288857,27.4427907 C25.9097429,26.1255814 27.8504571,25.9413953 29.1634571,27.0223256 C30.4783143,28.1051163 30.6658857,30.0511628 29.5850286,31.3665116 L17.1681714,46.4716279 L26.4223143,59.1618605 C27.4251714,60.5386047 27.1261714,62.467907 25.7518857,63.4744186 C25.2040286,63.8744186 24.5670286,64.067907 23.9374571,64.067907" id="Fill-1" fill="#2143AF"></path>
                    <path d="M44.4041,64.0388837 C43.7726714,64.0388837 43.1356714,63.8453953 42.5878143,63.4453953 C41.2135286,62.4388837 40.9163857,60.5077209 41.9211,59.1309767 L51.2142429,46.4091163 L38.8456714,31.3467907 C37.7648143,30.0295814 37.9542429,28.0835349 39.2691,27.0026047 C40.5839571,25.9179535 42.5246714,26.1095814 43.6055286,27.4230698 L57.4913857,44.3384186 C58.3846714,45.4286512 58.4292429,46.9858605 57.5972429,48.1226047 L46.8926714,62.7756279 C46.2891,63.6035349 45.3531,64.0388837 44.4041,64.0388837" id="Fill-3" fill="#2143AF"></path>
                    <path d="M26.0449429,8.54102326 C26.0449429,13.460093 30.0248,17.4452093 34.9332286,17.4452093 C39.8416571,17.4452093 43.8215143,13.460093 43.8215143,8.54102326 C43.8215143,3.62381395 39.8416571,1.38753488 34.9332286,1.38753488 C30.0248,1.38753488 26.0449429,3.62381395 26.0449429,8.54102326" id="Fill-5" fill="#121F55"></path>
                    <polygon id="Fill-7" fill="#F99AB6" points="31.6733857 19.4803721 31.6956714 27.9492093 31.7142429 33.484093 38.1919571 33.4692093 37.8669571 19.9324651 37.7741 16.0813023"></polygon>
                    <path d="M24.8480143,32.7506977 C24.8703,30.1069767 27.1490143,27.5506977 29.5094429,26.3209302 C33.0435857,24.4790698 38.4961571,25.7609302 40.2325857,26.7972093 C43.1891571,28.5590698 44.9497286,32.1404651 44.7435857,35.8186047 L44.9497286,55.5693023 L24.0160143,55.5693023 C24.0160143,55.5693023 24.7997286,38.7581395 24.8480143,32.7506977" id="Fill-9" fill="#2143AF"></path>
                    <path d="M39.1248,26.2935814 C36.5470857,25.2070698 32.9108,24.8498605 29.9728,26.1093953 L32.1493714,28.2898605 C33.5255143,29.6684651 35.7559429,29.6684651 37.1302286,28.2898605 C37.7950857,27.6256744 38.4599429,26.9577674 39.1248,26.2935814" id="Fill-11" fill="#F99AB6"></path>
                    <path d="M33.2467571,3.44837209 L36.6193286,3.44837209 C39.5981857,3.44837209 42.3876143,5.88930233 42.0143286,8.85116279 C41.7413286,11.0074419 42.0143286,12.6260465 42.0143286,15.8260465 C42.0143286,18.5106977 38.8776143,23.7162791 36.1996143,23.7162791 L33.6664714,23.7162791 C30.9884714,23.7162791 27.8517571,18.5106977 27.8517571,15.8260465 C27.8517571,12.6260465 28.1247571,11.0074419 27.8517571,8.85116279 C27.4784714,5.88930233 30.2679,3.44837209 33.2467571,3.44837209" id="Fill-13" fill="#F99AB6"></path>
                    <path d="M37.6647143,18.8917209 C37.4232857,20.1828837 36.2941429,21.1633488 34.9328571,21.1633488 C33.5715714,21.1633488 32.4424286,20.1828837 32.201,18.8917209 L37.6647143,18.8917209 Z" id="Fill-15" fill="#FFFEFF"></path>
                    <path d="M37.8461571,74.4548837 L31.1195857,74.4548837 C26.2873,74.4548837 22.6640143,70.0251163 23.6130143,65.2790698 L24.0160143,55.5693023 L44.9497286,55.5693023 L45.3545857,65.2790698 C46.3035857,70.0251163 42.6784429,74.4548837 37.8461571,74.4548837" id="Fill-17" fill="#566CD3"></path>
                    <path d="M3.85264286,63.6191628 L32.4340714,60.8898605 L33.2493571,69.4666047 L4.66792857,72.1940465 C2.32792857,72.4173023 0.251642857,70.700093 0.0269285714,68.355907 L0.0195,68.2703256 C-0.203357143,65.9242791 1.51264286,63.8424186 3.85264286,63.6191628" id="Fill-19" fill="#566CD3"></path>
                    <path d="M60.9089,63.6191628 L32.3274714,60.8898605 L31.5103286,69.4666047 L60.0936143,72.1940465 C62.4317571,72.4173023 64.5099,70.700093 64.7346143,68.355907 L64.7420429,68.2703256 C64.9649,65.9242791 63.2489,63.8424186 60.9089,63.6191628" id="Fill-21" fill="#566CD3"></path>
                    <path d="M45.6701143,69.4422326 L23.2971143,69.4422326 C22.1456857,69.4422326 21.2152571,68.5082791 21.2152571,67.3566512 L21.2152571,52.4971163 C21.2152571,51.3436279 22.1456857,50.4115349 23.2971143,50.4115349 L45.6701143,50.4115349 C46.8215429,50.4115349 47.7538286,51.3436279 47.7538286,52.4971163 L47.7538286,67.3566512 C47.7538286,68.5082791 46.8215429,69.4422326 45.6701143,69.4422326" id="Fill-23" fill="#FFFFFF"></path>
                    <path d="M45.6701143,70.3233488 L23.2971143,70.3233488 C22.1456857,70.3233488 21.2152571,69.3893953 21.2152571,68.2377674 L21.2152571,53.3782326 C21.2152571,52.2247442 22.1456857,51.2926512 23.2971143,51.2926512 L45.6701143,51.2926512 C46.8215429,51.2926512 47.7538286,52.2247442 47.7538286,53.3782326 L47.7538286,68.2377674 C47.7538286,69.3893953 46.8215429,70.3233488 45.6701143,70.3233488" id="Fill-25" fill="#B9B8F1"></path>
                    <path d="M37.5477143,62.3927442 L31.4191429,62.3927442 C30.5537143,62.3927442 29.8517143,61.6894884 29.8517143,60.8243721 L29.8517143,60.7927442 C29.8517143,59.9257674 30.5537143,59.2225116 31.4191429,59.2225116 L37.5477143,59.2225116 C38.4131429,59.2225116 39.1151429,59.9257674 39.1151429,60.7927442 L39.1151429,60.8243721 C39.1151429,61.6894884 38.4131429,62.3927442 37.5477143,62.3927442" id="Fill-27" fill="#FFFFFF"></path>
                    <path d="M23.2165143,78.1884651 L31.5458,77.6861395 L31.5198,77.8405581 C31.4399429,78.3261395 31.8225143,78.7652093 32.3128,78.752186 C32.6879429,78.7410233 33.0018,78.4656744 33.0630857,78.0954419 L33.1448,77.5912558 L34.0826571,77.5335814 L34.0436571,77.7735814 C33.9638,78.2591628 34.3445143,78.6963721 34.8348,78.6833488 C35.2099429,78.6740465 35.5238,78.3968372 35.5850857,78.0284651 L35.6816571,77.4386977 L40.9206571,77.1224186 C41.0320857,77.0814884 41.1398,77.023814 41.2438,76.9531163 C41.4480857,76.9103256 41.6542286,76.8563721 41.8566571,76.783814 C44.2653714,75.9093953 45.5133714,73.2433488 44.6423714,70.8284651 C43.7695143,68.4135814 41.1082286,67.1652093 38.6976571,68.0396279 C38.6809429,68.0452093 38.6642286,68.0545116 38.6475143,68.0619535 C38.6382286,68.063814 38.6289429,68.063814 38.6196571,68.0675349 L22.0855143,74.060093 C21.8236571,74.1549767 21.5933714,74.3186977 21.3946571,74.5270698 C20.0445143,75.9447442 21.2646571,78.303814 23.2165143,78.1884651" id="Fill-29" fill="#FFFFFF"></path>
                    <path d="M35.9437,75.1289302 C35.0708429,72.7140465 36.3188429,70.0498605 38.7294143,69.1754419 C41.1381286,68.3028837 43.7994143,69.5512558 44.6722714,71.9661395 C45.5432714,74.3810233 44.2971286,77.0452093 41.8865571,77.9196279 C39.4759857,78.7940465 36.8147,77.543814 35.9437,75.1289302" id="Fill-31" fill="#F7B75D"></path>
                    <path d="M22.1148571,75.196093 L38.6508571,69.2035349 C40.3984286,68.5691163 42.328,69.4770233 42.9612857,71.2277209 C43.5927143,72.9784186 42.6994286,77.6258605 40.9518571,78.2584186 L23.2477143,79.3244651 C21.2958571,79.4416744 20.0738571,77.0826047 21.424,75.6649302 C21.6245714,75.4565581 21.853,75.2928372 22.1148571,75.196093" id="Fill-33" fill="#F7B75D"></path>
                    <path d="M35.1148571,76.4770233 C35.607,76.464 35.9877143,76.9030698 35.9078571,77.3867907 L35.6162857,79.1635349 C35.555,79.5356279 35.2392857,79.8109767 34.866,79.8202791 C34.3757143,79.8333023 33.9931429,79.3942326 34.073,78.9105116 L34.3645714,77.1337674 C34.4258571,76.7616744 34.7397143,76.488186 35.1148571,76.4770233" id="Fill-35" fill="#FFFFFF"></path>
                    <g id="Group-39" transform="translate(29.714286, 76.166698)">
                        <mask id="mask-16" fill="white">
                            <use xlink:href="#path-15"></use>
                        </mask>
                        <g id="Clip-38"></g>
                        <path d="M2.87875714,0.379348837 C3.36904286,0.364465116 3.74975714,0.803534884 3.6699,1.28725581 L3.38018571,3.064 C3.3189,3.43609302 3.00318571,3.71144186 2.62804286,3.72074419 C2.13775714,3.73562791 1.75704286,3.29655814 1.8369,2.81283721 L2.12847143,1.03609302 C2.1879,0.664 2.50361429,0.388651163 2.87875714,0.379348837" id="Fill-37" fill="#FFFFFF" mask="url(#mask-16)"></path>
                    </g>
                    <path d="M59.1687571,65.4269767 L39.8600429,70.6306977 C38.0029,71.1293023 36.9034714,73.0437209 37.4030429,74.9023256 L37.4216143,74.9711628 C37.9211857,76.8316279 39.8303286,77.9330233 41.6856143,77.4325581 L60.9943286,72.2269767 C62.8514714,71.7283721 63.9509,69.8139535 63.4513286,67.9553488 L63.4327571,67.8865116 C62.9331857,66.027907 61.0259,64.9246512 59.1687571,65.4269767" id="Fill-40" fill="#F99AB6"></path>
                    <path d="M41.5441,78.1884651 L33.2148143,77.6861395 L33.2408143,77.8405581 C33.3206714,78.3261395 32.9399571,78.7652093 32.4496714,78.752186 C32.0745286,78.7410233 31.7588143,78.4656744 31.6975286,78.0954419 L31.6158143,77.5912558 L30.6779571,77.5335814 L30.7188143,77.7735814 C30.7986714,78.2591628 30.4161,78.6963721 29.9258143,78.6833488 C29.5506714,78.6740465 29.2368143,78.3968372 29.1755286,78.0284651 L29.0789571,77.4386977 L23.8399571,77.1224186 C23.7303857,77.0814884 23.6226714,77.023814 23.5168143,76.9531163 C23.3125286,76.9103256 23.1082429,76.8563721 22.9039571,76.783814 C20.4952429,75.9093953 19.2472429,73.2433488 20.1201,70.8284651 C20.9911,68.4135814 23.6523857,67.1652093 26.0629571,68.0396279 C26.0796714,68.0452093 26.0963857,68.0545116 26.1149571,68.0619535 C26.1242429,68.063814 26.1316714,68.063814 26.1409571,68.0675349 L42.6769571,74.060093 C42.9388143,74.1549767 43.1672429,74.3186977 43.3678143,74.5270698 C44.7179571,75.9447442 43.4959571,78.303814 41.5441,78.1884651" id="Fill-42" fill="#FFFFFF"></path>
                    <path d="M28.8178429,75.1289302 C29.6907,72.7140465 28.4427,70.0498605 26.0321286,69.1754419 C23.6215571,68.3028837 20.9621286,69.5512558 20.0892714,71.9661395 C19.2182714,74.3810233 20.4644143,77.0452093 22.8749857,77.9196279 C25.2855571,78.7940465 27.9449857,77.543814 28.8178429,75.1289302" id="Fill-44" fill="#F7B75D"></path>
                    <path d="M42.6459429,75.196093 L26.1118,69.2035349 C24.3642286,68.5691163 22.4328,69.4770233 21.8013714,71.2277209 C21.1699429,72.9784186 22.0632286,77.6258605 23.8089429,78.2584186 L41.5130857,79.3244651 C43.4649429,79.4416744 44.6869429,77.0826047 43.3368,75.6649302 C43.1380857,75.4565581 42.9078,75.2928372 42.6459429,75.196093" id="Fill-46" fill="#F7B75D"></path>
                    <path d="M29.6459429,76.4770233 C29.1556571,76.464 28.7749429,76.9030698 28.8548,77.3867907 L29.1445143,79.1635349 C29.2058,79.5356279 29.5215143,79.8109767 29.8966571,79.8202791 C30.3869429,79.8333023 30.7676571,79.3942326 30.6878,78.9105116 L30.3962286,77.1337674 C30.3368,76.7616744 30.0210857,76.488186 29.6459429,76.4770233" id="Fill-48" fill="#FFFFFF"></path>
                    <g id="Group-52" transform="translate(29.714286, 76.166698)">
                        <mask id="mask-18" fill="white">
                            <use xlink:href="#path-17"></use>
                        </mask>
                        <g id="Clip-51"></g>
                        <path d="M2.45421429,0.379348837 C1.96392857,0.364465116 1.58321429,0.803534884 1.66121429,1.28725581 L1.95278571,3.064 C2.01407143,3.43609302 2.32978571,3.71144186 2.70307143,3.72074419 C3.19521429,3.73562791 3.57592857,3.29655814 3.49607143,2.81283721 L3.2045,1.03609302 C3.14321429,0.664 2.82935714,0.388651163 2.45421429,0.379348837" id="Fill-50" fill="#FFFFFF" mask="url(#mask-18)"></path>
                    </g>
                    <path d="M5.59278571,65.4269767 L24.9015,70.6306977 C26.7567857,71.1293023 27.8580714,73.0437209 27.3585,74.9023256 L27.3399286,74.9711628 C26.8403571,76.8316279 24.9312143,77.9330233 23.0759286,77.4325581 L3.76721429,72.2269767 C1.91007143,71.7283721 0.810642857,69.8139535 1.31021429,67.9553488 L1.32878571,67.8865116 C1.8265,66.027907 3.73564286,64.9246512 5.59278571,65.4269767" id="Fill-53" fill="#F99AB6"></path>
                    <path d="M35.4684571,0 C43.5693143,0 43.4244571,8.70325581 43.4244571,8.70325581 C34.9336,10.3330233 31.6743143,4.30325581 31.6743143,3.12930233 C31.6743143,3.12930233 32.5638857,0 35.4684571,0" id="Fill-55" fill="#121F55"></path>
                    <path d="M31.2572,1.91851163 C24.7869143,1.05711628 26.2540571,9.56130233 26.2540571,9.56130233 C30.5254857,8.73711628 33.0530571,5.25804651 32.9044857,4.48781395 L31.2572,1.91851163 Z" id="Fill-57" fill="#121F55"></path>
                </g>
                <circle id="Oval-4" fill="url(#linearGradient-19)" cx="277.5" cy="169.5" r="3.5"></circle>
                <circle id="Oval-4-Copy" fill="url(#linearGradient-19)" cx="285" cy="157" r="7"></circle>
                <g id="Oval-4-Copy-2" transform="translate(278.000000, 76.000000)">
                    <circle fill="url(#linearGradient-20)" cx="37" cy="37" r="37"></circle>
                    <mask id="mask-22" fill="white">
                        <use xlink:href="#path-21"></use>
                    </mask>
                    <use id="Mask" fill="#FFFFFF" fill-rule="nonzero" xlink:href="#path-21"></use>
                </g>
            </g>
        </g>
    </g>
</svg>