<?xml version="1.0" encoding="UTF-8"?>
<svg width="530px" height="542px" viewBox="0 0 530 542" version="1.1" xmlns="http://www.w3.org/2000/svg" xmlns:xlink="http://www.w3.org/1999/xlink">
    <!-- Generator: Sketch 50.2 (55047) - http://www.bohemiancoding.com/sketch -->
    <title>Group 24</title>
    <desc>Created with Sketch.</desc>
    <defs>
        <linearGradient x1="50%" y1="0%" x2="50%" y2="100%" id="linearGradient-1">
            <stop stop-color="#DEE3EC" offset="0%"></stop>
            <stop stop-color="#B9C2D4" offset="100%"></stop>
        </linearGradient>
        <linearGradient x1="72.1391124%" y1="75.3045822%" x2="-39.0774202%" y2="-51.9308625%" id="linearGradient-2">
            <stop stop-color="#FFFFFF" offset="0%"></stop>
            <stop stop-color="#E2EBFB" stop-opacity="0" offset="100%"></stop>
        </linearGradient>
        <linearGradient x1="50.0003633%" y1="-24.2323773%" x2="50.0003633%" y2="68.7709756%" id="linearGradient-3">
            <stop stop-color="#FFFFFF" offset="0%"></stop>
            <stop stop-color="#E2EBFB" stop-opacity="0" offset="100%"></stop>
        </linearGradient>
        <linearGradient x1="50.0023352%" y1="14.6257711%" x2="50.0023352%" y2="88.7214726%" id="linearGradient-4">
            <stop stop-color="#23CF5F" offset="0%"></stop>
            <stop stop-color="#E2EBFB" stop-opacity="0" offset="100%"></stop>
        </linearGradient>
        <linearGradient x1="50.0023352%" y1="14.6257711%" x2="50.0023352%" y2="88.7214726%" id="linearGradient-5">
            <stop stop-color="#0055FF" offset="0%"></stop>
            <stop stop-color="#E2EBFB" stop-opacity="0" offset="100%"></stop>
        </linearGradient>
        <linearGradient x1="98.8591913%" y1="97.643828%" x2="1.69441341%" y2="2.14734148%" id="linearGradient-6">
            <stop stop-color="#FFFFFF" stop-opacity="0" offset="0%"></stop>
            <stop stop-color="#F2F6FD" stop-opacity="0.2625" offset="26.25%"></stop>
            <stop stop-color="#E6EEFC" stop-opacity="0.6257" offset="62.57%"></stop>
            <stop stop-color="#E2EBFB" offset="100%"></stop>
        </linearGradient>
        <linearGradient x1="50.0031923%" y1="100.796333%" x2="50.0031923%" y2="3.34022765%" id="linearGradient-7">
            <stop stop-color="#FFFFFF" stop-opacity="0" offset="0%"></stop>
            <stop stop-color="#E2EBFB" offset="100%"></stop>
        </linearGradient>
        <linearGradient x1="9.27896277%" y1="11.1692463%" x2="195.973484%" y2="180.88415%" id="linearGradient-8">
            <stop stop-color="#23CF5F" offset="0%"></stop>
            <stop stop-color="#E2EBFB" stop-opacity="0" offset="100%"></stop>
        </linearGradient>
        <linearGradient x1="50.0296683%" y1="100.804096%" x2="50.0296683%" y2="3.3893158%" id="linearGradient-9">
            <stop stop-color="#FFFFFF" stop-opacity="0" offset="0%"></stop>
            <stop stop-color="#E2EBFB" offset="100%"></stop>
        </linearGradient>
        <linearGradient x1="-36.5331695%" y1="-32.3007462%" x2="156.824509%" y2="147.510574%" id="linearGradient-10">
            <stop stop-color="#E2EBFB" offset="0%"></stop>
            <stop stop-color="#FFFFFF" stop-opacity="0" offset="100%"></stop>
        </linearGradient>
        <linearGradient x1="49.9987271%" y1="100.831947%" x2="49.9987271%" y2="3.35669847%" id="linearGradient-11">
            <stop stop-color="#FFFFFF" stop-opacity="0" offset="0%"></stop>
            <stop stop-color="#E2EBFB" offset="100%"></stop>
        </linearGradient>
        <linearGradient x1="5.71404867%" y1="13.8306553%" x2="104.685951%" y2="99.0190969%" id="linearGradient-12">
            <stop stop-color="#E2EBFB" offset="0%"></stop>
            <stop stop-color="#FFFFFF" stop-opacity="0" offset="100%"></stop>
        </linearGradient>
        <linearGradient x1="49.9847222%" y1="100.793418%" x2="49.9847222%" y2="3.35345589%" id="linearGradient-13">
            <stop stop-color="#FFFFFF" stop-opacity="0" offset="0%"></stop>
            <stop stop-color="#E2EBFB" offset="100%"></stop>
        </linearGradient>
        <linearGradient x1="136.501389%" y1="-32.2882401%" x2="-56.8904444%" y2="147.486879%" id="linearGradient-14">
            <stop stop-color="#E2EBFB" offset="0%"></stop>
            <stop stop-color="#FFFFFF" stop-opacity="0" offset="100%"></stop>
        </linearGradient>
        <linearGradient x1="50.0495833%" y1="100.755942%" x2="50.0495833%" y2="3.2782091%" id="linearGradient-15">
            <stop stop-color="#FFFFFF" stop-opacity="0" offset="0%"></stop>
            <stop stop-color="#E2EBFB" offset="100%"></stop>
        </linearGradient>
        <linearGradient x1="136.594167%" y1="-32.1414846%" x2="-56.86%" y2="147.578674%" id="linearGradient-16">
            <stop stop-color="#E2EBFB" offset="0%"></stop>
            <stop stop-color="#FFFFFF" stop-opacity="0" offset="100%"></stop>
        </linearGradient>
        <linearGradient x1="131.449659%" y1="129.101457%" x2="-64.7696737%" y2="-61.4967604%" id="linearGradient-17">
            <stop stop-color="#0055FF" offset="0%"></stop>
            <stop stop-color="#E2EBFB" stop-opacity="0" offset="100%"></stop>
        </linearGradient>
        <circle id="path-18" cx="20" cy="20" r="20"></circle>
        <filter x="-28.8%" y="-16.2%" width="157.5%" height="157.5%" filterUnits="objectBoundingBox" id="filter-19">
            <feOffset dx="0" dy="5" in="SourceAlpha" result="shadowOffsetOuter1"></feOffset>
            <feGaussianBlur stdDeviation="3" in="shadowOffsetOuter1" result="shadowBlurOuter1"></feGaussianBlur>
            <feColorMatrix values="0 0 0 0 0.352941176   0 0 0 0 0.568627451   0 0 0 0 0.992156863  0 0 0 0.259624094 0" type="matrix" in="shadowBlurOuter1"></feColorMatrix>
        </filter>
        <circle id="path-20" cx="9" cy="9" r="9"></circle>
        <filter x="-30.6%" y="-19.4%" width="161.1%" height="161.1%" filterUnits="objectBoundingBox" id="filter-21">
            <feOffset dx="0" dy="2" in="SourceAlpha" result="shadowOffsetOuter1"></feOffset>
            <feGaussianBlur stdDeviation="1.5" in="shadowOffsetOuter1" result="shadowBlurOuter1"></feGaussianBlur>
            <feColorMatrix values="0 0 0 0 0.352941176   0 0 0 0 0.568627451   0 0 0 0 0.992156863  0 0 0 0.259624094 0" type="matrix" in="shadowBlurOuter1"></feColorMatrix>
        </filter>
        <circle id="path-22" cx="10" cy="10" r="10"></circle>
        <filter x="-27.5%" y="-17.5%" width="155.0%" height="155.0%" filterUnits="objectBoundingBox" id="filter-23">
            <feOffset dx="0" dy="2" in="SourceAlpha" result="shadowOffsetOuter1"></feOffset>
            <feGaussianBlur stdDeviation="1.5" in="shadowOffsetOuter1" result="shadowBlurOuter1"></feGaussianBlur>
            <feColorMatrix values="0 0 0 0 0.352941176   0 0 0 0 0.568627451   0 0 0 0 0.992156863  0 0 0 0.259624094 0" type="matrix" in="shadowBlurOuter1"></feColorMatrix>
        </filter>
        <circle id="path-24" cx="12.5" cy="12.5" r="12.5"></circle>
        <filter x="-30.0%" y="-18.0%" width="160.0%" height="160.0%" filterUnits="objectBoundingBox" id="filter-25">
            <feOffset dx="0" dy="3" in="SourceAlpha" result="shadowOffsetOuter1"></feOffset>
            <feGaussianBlur stdDeviation="2" in="shadowOffsetOuter1" result="shadowBlurOuter1"></feGaussianBlur>
            <feColorMatrix values="0 0 0 0 0.352941176   0 0 0 0 0.568627451   0 0 0 0 0.992156863  0 0 0 0.259624094 0" type="matrix" in="shadowBlurOuter1"></feColorMatrix>
        </filter>
        <circle id="path-26" cx="9" cy="9" r="9"></circle>
        <filter x="-30.6%" y="-19.4%" width="161.1%" height="161.1%" filterUnits="objectBoundingBox" id="filter-27">
            <feOffset dx="0" dy="2" in="SourceAlpha" result="shadowOffsetOuter1"></feOffset>
            <feGaussianBlur stdDeviation="1.5" in="shadowOffsetOuter1" result="shadowBlurOuter1"></feGaussianBlur>
            <feColorMatrix values="0 0 0 0 0.137254902   0 0 0 0 0.811764706   0 0 0 0 0.37254902  0 0 0 0.199445199 0" type="matrix" in="shadowBlurOuter1"></feColorMatrix>
        </filter>
        <circle id="path-28" cx="15" cy="15" r="15"></circle>
        <filter x="-30.0%" y="-20.0%" width="160.0%" height="160.0%" filterUnits="objectBoundingBox" id="filter-29">
            <feOffset dx="0" dy="3" in="SourceAlpha" result="shadowOffsetOuter1"></feOffset>
            <feGaussianBlur stdDeviation="2.5" in="shadowOffsetOuter1" result="shadowBlurOuter1"></feGaussianBlur>
            <feColorMatrix values="0 0 0 0 0.137254902   0 0 0 0 0.811764706   0 0 0 0 0.37254902  0 0 0 0.199445199 0" type="matrix" in="shadowBlurOuter1"></feColorMatrix>
        </filter>
        <circle id="path-30" cx="9" cy="9" r="9"></circle>
        <filter x="-30.6%" y="-19.4%" width="161.1%" height="161.1%" filterUnits="objectBoundingBox" id="filter-31">
            <feOffset dx="0" dy="2" in="SourceAlpha" result="shadowOffsetOuter1"></feOffset>
            <feGaussianBlur stdDeviation="1.5" in="shadowOffsetOuter1" result="shadowBlurOuter1"></feGaussianBlur>
            <feColorMatrix values="0 0 0 0 0.137254902   0 0 0 0 0.811764706   0 0 0 0 0.37254902  0 0 0 0.199445199 0" type="matrix" in="shadowBlurOuter1"></feColorMatrix>
        </filter>
    </defs>
    <g id="Page-1" stroke="none" stroke-width="1" fill="none" fill-rule="evenodd">
        <g id="Landing-page-Final" transform="translate(-889.000000, -196.000000)">
            <g id="Group-19" transform="translate(0.000000, 136.000000)">
                <g id="Group-22">
                    <g id="Group-24" transform="translate(889.000000, 60.000000)">
                        <g id="Group-20">
                            <ellipse id="Oval-2" fill="url(#linearGradient-1)" cx="265.5" cy="129" rx="26.5" ry="31"></ellipse>
                            <path d="M249.209783,135 C252.765625,133.98857 255.557949,133.22949 255.557949,133.22949 C255.557949,133.22949 254.542527,122.09801 265.461277,122.856751 C266.984579,120.326823 268,116.278397 268,116.278397 C268,116.278397 266.532375,116 264.413604,116 C258.453818,116 247.337483,118.202482 249.209783,135" id="Fill-1" fill="#FFFFFF"></path>
                            <path d="M251,138.999499 C251,141.20915 252.790072,143 254.999331,143 C257.20926,143 259,141.20915 259,138.999499 C259,136.790516 257.20926,135 254.999331,135 C252.790072,135 251,136.790516 251,138.999499" id="Fill-4" fill="#FFFFFF"></path>
                            <path d="M272.373278,127.816638 C272.373278,127.816638 273.504186,138.855123 262.495112,138.203135 C260.984841,140.7285 260,144.75626 260,144.75626 C260,144.75626 261.365915,144.998321 263.364672,145 L263.392381,145 C268.845093,144.998657 278.958951,143.20082 279,129.89716 L279,129.737017 C278.996579,128.579082 278.917217,127.336543 278.75302,126 C275.180023,127.036736 272.373278,127.816638 272.373278,127.816638" id="Fill-7" fill="#FFFFFF"></path>
                            <path d="M271.962385,118.000334 C269.7528,118.021726 267.979783,119.82899 268.000174,122.037683 C268.020899,124.247044 269.82935,126.020215 272.037598,125.999826 C274.246849,125.978434 276.021202,124.17117 275.999809,121.961809 C275.979752,119.765818 274.191693,118 272.000493,118 C271.98779,118 271.975088,118 271.962385,118.000334" id="Fill-10" fill="#FFFFFF"></path>
                            <g id="Group-18" fill-rule="nonzero">
                                <polygon id="Shape" fill="url(#linearGradient-2)" points="112 294.991288 210.719262 238 309.387295 295.042539 210.719262 352.085079"></polygon>
                                <polygon id="Shape-Copy" fill="url(#linearGradient-2)" points="317 447.991288 415.719262 391 514.387295 448.042539 415.719262 505.085079"></polygon>
                                <path d="M112,508.871084 C141.20082,528.551529 174.653689,542.440593 210.719262,548.744486 L210.719262,352.042539 L112,295 L112,508.871084 Z" id="Shape" fill="url(#linearGradient-3)"></path>
                                <path d="M317,661.871084 C346.20082,681.551529 379.653689,695.440593 415.719262,701.744486 L415.719262,505.042539 L317,448 L317,661.871084 Z" id="Shape-Copy-2" fill="url(#linearGradient-3)"></path>
                                <path d="M211,548.693234 C225.446721,551.204541 240.303279,552.537071 255.467213,552.537071 C274.063525,552.537071 292.25,550.538276 309.719262,546.796942 L309.668033,295 L211,352.042539 L211,548.693234 Z" id="Shape" fill="url(#linearGradient-4)"></path>
                                <path d="M416,701.693234 C430.446721,704.204541 445.303279,705.537071 460.467213,705.537071 C479.063525,705.537071 497.25,703.538276 514.719262,699.796942 L514.668033,448 L416,505.042539 L416,701.693234 Z" id="Shape-Copy-3" fill="url(#linearGradient-5)"></path>
                                <path d="M376.588115,271.016126 L184.016393,159.69861 L184.016393,22.8580167 C184.016393,18.1429101 189.139344,15.1703429 193.186475,17.5278962 L371.260246,120.440222 C374.538934,122.336515 376.536885,125.821594 376.536885,129.61418 L376.536885,271.016126 L376.588115,271.016126 Z" id="Shape" fill="url(#linearGradient-6)"></path>
                                <path d="M412.961066,254.769509 L220.389344,143.503244 L220.389344,6.6626506 C220.389344,1.94754402 225.512295,-1.02502317 229.559426,1.33253012 L407.633197,104.244856 C410.911885,106.141149 412.909836,109.626228 412.909836,113.418814 L412.909836,254.769509 L412.961066,254.769509 Z" id="Shape" fill="url(#linearGradient-7)"></path>
                                <path d="M376.588115,137.711863 L184.016393,26.3943466 L184.016393,22.960519 C184.016393,18.1941613 189.190574,15.2215941 193.340164,17.5791474 L371.157787,120.33772 C374.538934,122.285264 376.639344,125.924096 376.639344,129.819184 L376.639344,137.711863 L376.588115,137.711863 Z" id="Shape" fill="url(#linearGradient-8)"></path>
                                <path d="M499.590164,375.260982 L499.590164,344.100278 C499.590164,342.460241 498.719262,340.922706 497.284836,340.102688 L420.184426,295.51418 C418.391393,294.489157 416.188525,295.770436 416.188525,297.820482 L416.188525,357.066821 L490.163934,399.861538 C493.75,391.866358 496.875,383.666172 499.590164,375.260982 Z" id="Shape" fill="url(#linearGradient-9)"></path>
                                <path d="M499.590164,347.585357 L416.239754,299.409268 L416.239754,297.922984 C416.239754,295.872938 418.493852,294.540408 420.286885,295.616682 L497.284836,340.102688 C498.770492,340.973957 499.641393,342.511492 499.641393,344.20278 L499.641393,347.585357 L499.590164,347.585357 Z" id="Shape" fill="url(#linearGradient-10)"></path>
                                <path d="M64.7540984,236.011585 L64.7540984,170.512604 C64.7540984,168.257553 62.295082,166.822521 60.3483607,167.950046 L22.3872951,189.885542 C10.6045082,215.664875 2.97131148,243.699259 0.358606557,273.219926 L64.7540984,236.011585 Z" id="Shape" fill="url(#linearGradient-11)"></path>
                                <path d="M64.7540984,172.203892 L64.7540984,170.563855 C64.7540984,168.257553 62.295082,166.873772 60.2971311,168.001297 L22.3872951,189.936793 C21.0040984,192.909361 19.7233607,195.933179 18.442623,199.008248 L64.7540984,172.203892 Z" id="Shape" fill="url(#linearGradient-12)"></path>
                                <path d="M91.8032787,289.31279 L184.016393,236.011585 L184.016393,170.512604 C184.016393,168.257553 181.557377,166.822521 179.610656,167.950046 L94.3647541,217.253661 C92.7766393,218.176182 91.8032787,219.816219 91.8032787,221.66126 L91.8032787,289.31279 Z" id="Shape" fill="url(#linearGradient-13)"></path>
                                <path d="M91.8032787,225.505097 L184.016393,172.203892 L184.016393,170.563855 C184.016393,168.257553 181.557377,166.873772 179.559426,168.001297 L94.4159836,217.20241 C92.7766393,218.12493 91.8032787,219.86747 91.8032787,221.763763 L91.8032787,225.505097 Z" id="Shape" fill="url(#linearGradient-14)"></path>
                                <path d="M53.7397541,221.66126 L90.625,200.340778 L90.625,174.151437 C90.625,173.228916 89.6516393,172.665153 88.8831967,173.126413 L54.7643443,192.858109 C54.1495902,193.216867 53.7397541,193.883133 53.7397541,194.600649 L53.7397541,221.66126 Z" id="Shape" fill="url(#linearGradient-15)"></path>
                                <path d="M53.7397541,196.086932 L90.625,174.76645 L90.625,174.100185 C90.625,173.177665 89.6516393,172.613902 88.8319672,173.075162 L54.8155738,192.806858 C54.1495902,193.165616 53.7909836,193.883133 53.7909836,194.600649 L53.7909836,196.086932 L53.7397541,196.086932 Z" id="Shape" fill="url(#linearGradient-16)"></path>
                                <path d="M201.02459,32.5957368 C200.409836,32.2369787 200.05123,31.5707136 200.05123,30.9044486 C200.05123,29.3669138 201.690574,28.444393 203.022541,29.2131603 C203.637295,29.5719184 203.995902,30.2381835 203.995902,30.9044486 C203.995902,32.3907322 202.356557,33.3645042 201.02459,32.5957368 Z" id="Shape" fill="#FFFFFF"></path>
                                <path d="M195.184426,29.1619092 C194.569672,28.8031511 194.211066,28.136886 194.211066,27.4706209 C194.211066,25.9330862 195.85041,25.0105653 197.182377,25.7793327 C197.797131,26.1380908 198.155738,26.8043559 198.155738,27.4706209 C198.155738,28.9569045 196.516393,29.9306766 195.184426,29.1619092 Z" id="Shape" fill="#FFFFFF"></path>
                                <path d="M189.395492,25.6768304 C188.780738,25.3180723 188.422131,24.6518072 188.422131,23.9855422 C188.422131,22.4480074 190.061475,21.5254866 191.393443,22.2942539 C192.008197,22.653012 192.366803,23.3192771 192.366803,23.9855422 C192.366803,25.5230769 190.727459,26.4455978 189.395492,25.6768304 Z" id="Shape" fill="#FFFFFF"></path>
                            </g>
                            <g id="Group-17" transform="translate(174.000000, 130.000000)" fill-rule="nonzero">
                                <ellipse id="Oval" fill-opacity="0.363422781" fill="#0055FF" opacity="0.15" cx="38" cy="170.5" rx="38" ry="22.5"></ellipse>
                                <ellipse id="Oval-Copy" fill-opacity="0.363422781" fill="#0055FF" opacity="0.15" cx="248" cy="320.5" rx="38" ry="22.5"></ellipse>
                                <g id="Group" transform="translate(19.000000, 0.000000)">
                                    <g transform="translate(22.962963, 74.731034)">
                                        <ellipse id="Oval" fill="#2E3280" cx="8.66851852" cy="9.09517241" rx="8.61111111" ry="8.68965517"></ellipse>
                                        <polygon id="Shape" fill="#394765" points="17.2796296 9.09517241 17.2796296 47.7931034 10.0462963 47.7931034 0.287037037 11.0068966"></polygon>
                                        <ellipse id="Oval" fill="#394765" cx="13.662963" cy="47.7931034" rx="3.61666667" ry="3.64965517"></ellipse>
                                        <path d="M17.2796296,47.7931034 L17.2796296,90.8937931 L13.0314815,90.8937931 L8.84074074,68.88 C8.03703704,64.8248276 7.97962963,60.6537931 8.66851852,56.5406897 L10.1037037,47.7931034 L17.2796296,47.7931034 Z" id="Shape" fill="#394765"></path>
                                    </g>
                                    <g transform="translate(15.500000, 0.000000)">
                                        <ellipse id="Oval" fill="#E2EBFB" cx="5.22407407" cy="40.1462069" rx="4.99444444" ry="5.04"></ellipse>
                                        <ellipse id="Oval" fill="#E2EBFB" cx="28.3592593" cy="27.7489655" rx="3.38703704" ry="3.41793103"></ellipse>
                                        <polygon id="Shape" fill="#E2EBFB" points="3.9037037 35.28 27.4981481 24.4468966 29.9666667 30.7613793 7.40555556 44.7227586"></polygon>
                                        <polygon id="Shape" fill="#E2EBFB" points="31.4018519 29.2551724 40.5296296 8.34206897 37.5444444 6.5462069 25.3740741 26.4165517"></polygon>
                                        <path d="M37.487037,6.66206897 L37.7166667,5.09793103 C37.8314815,4.40275862 38.3481481,3.88137931 39.037037,3.82344828 L41.1037037,3.59172414 L44.0314815,0.231724138 C44.2037037,0.0579310345 44.4907407,0.0579310345 44.662963,0.231724138 C44.8351852,0.347586207 44.8351852,0.579310345 44.7203704,0.753103448 L40.4148148,8.45793103 L37.487037,6.66206897 Z" id="Shape" fill="#B17400"></path>
                                        <path d="M40.4148148,7.87862069 L39.2092593,7.41517241 L42.7685185,5.15586207 C43.2277778,4.8662069 43.9166667,4.98206897 44.2037037,5.50344828 L40.4148148,7.87862069 Z" id="Shape" fill="#B17400"></path>
                                    </g>
                                    <path d="M29.3925926,30.8772414 C29.162963,31.1089655 28.187037,32.3834483 28.3592593,34.1793103 C28.5888889,36.6703448 31.1722222,38.582069 31.287037,38.64 C28.7611111,38.64 25.9481481,37.8289655 23.4222222,37.8289655 L23.4222222,28.0965517 L29.3925926,30.8772414 Z" id="Shape" fill="#B17400"></path>
                                    <g transform="translate(2.296296, 74.731034)" fill="#394765">
                                        <ellipse id="Oval" cx="20.4944444" cy="9.03724138" rx="8.61111111" ry="8.68965517"></ellipse>
                                        <polygon id="Shape" points="29.0481481 10.137931 24.1685185 48.5462069 17.05 47.6193103 11.9407407 9.84827586"></polygon>
                                        <ellipse id="Oval" cx="20.6092593" cy="48.0827586" rx="3.61666667" ry="3.64965517"></ellipse>
                                        <path d="M23.7666667,49.8206897 L3.73148148,87.8813793 L0,85.8537931 L6.54444444,64.4193103 C7.75,60.48 9.64444444,56.7724138 12.112963,53.4703448 L17.4518519,46.4027586 L23.7666667,49.8206897 Z" id="Shape"></path>
                                    </g>
                                    <path d="M21.8722222,35.337931 L36.0518519,40.2041379 L40.0703704,82.32 C37.0851852,83.2468966 32.2055556,84.4055172 26.1203704,83.8262069 C21.1833333,83.3627586 17.2796296,82.0303448 14.6962963,80.8717241 C15.4425926,74.8468966 16.1888889,68.7641379 16.9351852,62.7393103 C17.4518519,58.8 17.3944444,54.8027586 16.762963,50.9213793 L15.3851852,41.8841379 C14.8685185,38.1186207 18.0833333,34.8165517 21.8722222,35.337931 Z" id="Shape" fill="#E2EBFB"></path>
                                    <path d="M28.3018519,84 C33.3537037,84.1158621 37.487037,83.1889655 40.1277778,82.377931 L38.2333333,43.2744828 L28.3018519,43.2744828 C33.9277778,53.9917241 33.3537037,60.3062069 31.6888889,64.1875862 C30.4259259,67.0262069 28.2444444,69.2275862 27.3833333,73.8041379 C26.637037,77.9172414 27.4981481,81.5668966 28.3018519,84 Z" id="Shape" fill="#D1DEF2"></path>
                                    <ellipse id="Oval" fill="#B17400" cx="29.3925926" cy="22.4193103" rx="8.20925926" ry="10.4275862"></ellipse>
                                    <path d="M31.9759259,43.5062069 C29.2203704,40.7834483 27.6703704,37.0758621 27.2685185,33.1944828 C27.2111111,32.9048276 27.2111111,32.5572414 27.1537037,32.2675862 L27.1537037,32.0937931 C26.9240741,30.5296552 27.7277778,29.0813793 29.0481481,28.3282759 C33.1814815,26.0110345 36.0518519,21.5503448 36.1092593,16.3944828 C34.6166667,13.7296552 32.2055556,11.9337931 29.45,11.9337931 C26.4648148,11.9337931 23.8814815,13.9613793 22.4462963,17.0317241 C21.4703704,19.1172414 19.5759259,20.6813793 17.337037,21.0289655 L16.9351852,21.0868966 C11.4814815,21.897931 6.14259259,28.617931 7.23333333,35.5117241 C7.23333333,35.5117241 7.23333333,35.5696552 7.23333333,35.5696552 C7.69259259,38.3503448 6.65925926,41.0731034 4.53518519,42.9268966 C2.00925926,45.1282759 0.516666667,47.9089655 0.516666667,50.9793103 C0.516666667,57.9889655 8.32407407,63.6082759 17.9685185,63.6082759 C27.612963,63.6082759 35.4203704,57.9310345 35.4203704,50.9793103 C35.362963,48.1986207 34.1,45.5917241 31.9759259,43.5062069 Z" id="Shape" fill="#2E3280"></path>
                                    <g transform="translate(28.703704, 39.393103)">
                                        <ellipse id="Oval" fill="#E2EBFB" cx="5.51111111" cy="5.50344828" rx="4.99444444" ry="5.04"></ellipse>
                                        <ellipse id="Oval" fill="#E2EBFB" cx="12.112963" cy="31.1089655" rx="3.38703704" ry="3.41793103"></ellipse>
                                        <polygon id="Shape" fill="#E2EBFB" points="10.562963 5.38758621 15.5 30.9931034 8.84074074 31.977931 0.631481481 6.5462069"></polygon>
                                        <polygon id="Shape" fill="#E2EBFB" points="9.93148148 33.7158621 27.9574074 47.6193103 30.9425926 45.5917241 14.0648148 28.4441379"></polygon>
                                        <path d="M30.9425926,45.5917241 L31.8037037,46.5186207 C33.0666667,47.9668966 33.4111111,50.0524138 32.6074074,51.8482759 L31.0574074,55.44 C30.0814815,55.2662069 29.45,54.3972414 29.5648148,53.4124138 C29.6796296,52.5434483 29.6796296,51.5006897 29.3351852,50.342069 C28.9907407,49.1255172 28.4740741,48.1986207 28.0148148,47.6193103 C28.9333333,46.9241379 29.9666667,46.2868966 30.9425926,45.5917241 Z" id="Shape" fill="#B17400"></path>
                                    </g>
                                    <path d="M31.9759259,43.5062069 C29.2203704,40.7834483 27.6703704,37.0758621 27.2685185,33.1944828 C27.2111111,32.9048276 27.2111111,32.5572414 27.1537037,32.2675862 L27.1537037,32.0937931 C26.9240741,30.5296552 27.7277778,29.0813793 29.0481481,28.3282759 C33.1814815,26.0110345 36.0518519,21.5503448 36.1092593,16.3944828 C34.6166667,13.7296552 32.2055556,11.9337931 29.45,11.9337931 C26.4648148,11.9337931 23.8814815,13.9613793 22.4462963,17.0317241 C21.4703704,19.1172414 19.5759259,20.6813793 17.337037,21.0289655 L16.9351852,21.0868966 C11.4814815,21.897931 6.14259259,28.617931 7.23333333,35.5117241 C7.23333333,35.5117241 7.23333333,35.5696552 7.23333333,35.5696552 C7.69259259,38.3503448 6.65925926,41.0731034 4.53518519,42.9268966 C2.00925926,45.1282759 0.516666667,47.9089655 0.516666667,50.9793103 C0.516666667,57.9889655 8.32407407,63.6082759 17.9685185,63.6082759 C27.612963,63.6082759 35.4203704,57.9310345 35.4203704,50.9793103 C35.362963,48.1986207 34.1,45.5917241 31.9759259,43.5062069 Z" id="Shape" fill="#394765"></path>
                                    <path d="M11.5962963,45.5917241 C10.5055556,42.057931 11.1944444,38.2344828 13.3185185,34.7586207 C15.0981481,31.862069 15.212963,28.3282759 13.7203704,25.257931 C13.7203704,25.257931 13.7203704,25.2 13.7203704,25.2 C13.3185185,24.3889655 13.0314815,23.577931 12.8018519,22.7668966 C9.12777778,25.3737931 6.37222222,30.3558621 7.17592593,35.4537931 C7.17592593,35.4537931 7.17592593,35.5117241 7.17592593,35.5117241 C7.63518519,38.2924138 6.60185185,41.0151724 4.47777778,42.8689655 C1.95185185,45.0703448 0.459259259,47.8510345 0.459259259,50.9213793 C0.459259259,57.9310345 8.26666667,63.5503448 17.9111111,63.5503448 C26.062963,63.5503448 32.8944444,59.4951724 34.7888889,54.0496552 C24.2259259,56.9462069 14.0074074,53.2965517 11.5962963,45.5917241 Z" id="Shape" fill="#202B44"></path>
                                    <path d="M35.9944444,165.624828 C38.6925926,166.146207 41.5055556,165.624828 43.8592593,164.118621 L46.7296296,162.264828 C47.1314815,162.033103 47.2462963,161.511724 47.0166667,161.106207 C46.8444444,160.816552 46.5,160.642759 46.212963,160.70069 L37.8888889,161.743448 L35.9944444,165.624828 Z" id="Shape" fill="#202B44"></path>
                                    <path d="M2.2962963,160.584828 L0.861111111,162.670345 C0.287037037,163.481379 0.516666667,164.64 1.32037037,165.21931 L4.07592593,167.073103 C4.76481481,167.536552 5.56851852,167.768276 6.42962963,167.768276 L10.3907407,167.768276 C11.3092593,167.768276 12.112963,167.015172 12.112963,166.030345 L10.4481481,165.451034 C8.72592593,164.871724 7.23333333,163.886897 5.97037037,162.554483 L2.2962963,160.584828 Z" id="Shape" fill="#202B44"></path>
                                </g>
                            </g>
                        </g>
                        <g id="Group-23" transform="translate(19.000000, 64.000000)">
                            <g id="Group-21" transform="translate(465.000000, 55.000000)">
                                <g id="Oval-3">
                                    <use fill="black" fill-opacity="1" filter="url(#filter-19)" xlink:href="#path-18"></use>
                                    <use fill="url(#linearGradient-17)" fill-rule="evenodd" xlink:href="#path-18"></use>
                                </g>
                                <circle id="Oval-3-Copy" fill="#0055FF" cx="20" cy="20" r="17.1014493"></circle>
                                <path d="M21.91382,29.5652174 L15.858332,29.5652174 C14.4665768,29.5652174 13.3333333,28.4162469 13.3333333,27.007046 L13.3333333,25.6967631 L16.9284505,25.6967631 L16.9284505,25.9250354 L21.91382,25.9250354 C22.8727183,25.9250354 23.6512596,25.1352133 23.6512596,24.1642952 C23.6512596,23.5327419 23.1447569,23.0183683 22.5210221,23.0183683 L18.0586881,23.0183683 C15.4540317,23.0183683 13.3333333,20.871087 13.3333333,18.2322594 L13.3333333,17.5763571 C13.3333333,14.5966429 15.7260702,12.173913 18.6658901,12.173913 L24.7198751,12.173913 C26.1131333,12.173913 27.2463768,13.3228835 27.2463768,14.7320844 L27.2463768,16.2188979 L23.6512596,16.2188979 L23.6512596,15.8140951 L18.6658901,15.8140951 C17.7084948,15.8140951 16.9284505,16.605439 16.9284505,17.5763571 L16.9284505,18.2322594 C16.9284505,18.8653346 17.4349533,19.3781863 18.0586881,19.3781863 L22.5210221,19.3781863 C25.1256785,19.3781863 27.2463768,21.5254676 27.2463768,24.1642952 C27.2463768,27.1424876 24.8536399,29.5652174 21.91382,29.5652174" id="Fill-219" fill="#FFFFFF"></path>
                                <polygon id="Fill-220" fill="#FFFFFF" points="18.5507246 31.884058 22.0289855 31.884058 22.0289855 10.4347826 18.5507246 10.4347826"></polygon>
                            </g>
                            <g id="Group-21-Copy-2" transform="translate(371.000000, 0.000000)">
                                <g id="Oval-3">
                                    <use fill="black" fill-opacity="1" filter="url(#filter-21)" xlink:href="#path-20"></use>
                                    <use fill="url(#linearGradient-17)" fill-rule="evenodd" xlink:href="#path-20"></use>
                                </g>
                                <circle id="Oval-3-Copy" fill="#0055FF" cx="9" cy="9" r="7.69565217"></circle>
                                <path d="M9.86121901,13.3043478 L7.13624942,13.3043478 C6.50995956,13.3043478 6,12.7873111 6,12.1531707 L6,11.5635434 L7.61780274,11.5635434 L7.61780274,11.6662659 L9.86121901,11.6662659 C10.2927233,11.6662659 10.6430668,11.310846 10.6430668,10.8739328 C10.6430668,10.5897338 10.4151406,10.3582657 10.1344599,10.3582657 L8.12640963,10.3582657 C6.95431424,10.3582657 6,9.39198916 6,8.20451675 L6,7.90936069 C6,6.56848929 7.07673159,5.47826087 8.39965056,5.47826087 L11.1239438,5.47826087 C11.75091,5.47826087 12.2608696,5.99529759 12.2608696,6.62943799 L12.2608696,7.29850406 L10.6430668,7.29850406 L10.6430668,7.11634277 L8.39965056,7.11634277 C7.96882265,7.11634277 7.61780274,7.47244754 7.61780274,7.90936069 L7.61780274,8.20451675 C7.61780274,8.48940056 7.84572897,8.72018384 8.12640963,8.72018384 L10.1344599,8.72018384 C11.3065553,8.72018384 12.2608696,9.68646041 12.2608696,10.8739328 C12.2608696,12.2141194 11.184138,13.3043478 9.86121901,13.3043478" id="Fill-219" fill="#FFFFFF"></path>
                                <polygon id="Fill-220" fill="#FFFFFF" points="8.34782609 14.3478261 9.91304348 14.3478261 9.91304348 4.69565217 8.34782609 4.69565217"></polygon>
                            </g>
                            <g id="Group-21-Copy-3" transform="translate(460.000000, 177.000000)">
                                <g id="Oval-3">
                                    <use fill="black" fill-opacity="1" filter="url(#filter-23)" xlink:href="#path-22"></use>
                                    <use fill="url(#linearGradient-17)" fill-rule="evenodd" xlink:href="#path-22"></use>
                                </g>
                                <circle id="Oval-3-Copy" fill="#0055FF" cx="10" cy="10" r="8.55072464"></circle>
                                <path d="M10.95691,14.7826087 L7.92916602,14.7826087 C7.2332884,14.7826087 6.66666667,14.2081234 6.66666667,13.503523 L6.66666667,12.8483815 L8.46422527,12.8483815 L8.46422527,12.9625177 L10.95691,12.9625177 C11.4363592,12.9625177 11.8256298,12.5676066 11.8256298,12.0821476 C11.8256298,11.7663709 11.5723784,11.5091842 11.260511,11.5091842 L9.02934403,11.5091842 C7.72701583,11.5091842 6.66666667,10.4355435 6.66666667,9.11612972 L6.66666667,8.78817854 C6.66666667,7.29832144 7.8630351,6.08695652 9.33294506,6.08695652 L12.3599376,6.08695652 C13.0565667,6.08695652 13.6231884,6.66144177 13.6231884,7.36604222 L13.6231884,8.10944895 L11.8256298,8.10944895 L11.8256298,7.90704753 L9.33294506,7.90704753 C8.85424739,7.90704753 8.46422527,8.30271948 8.46422527,8.78817854 L8.46422527,9.11612972 C8.46422527,9.43266729 8.71747663,9.68909315 9.02934403,9.68909315 L11.260511,9.68909315 C12.5628392,9.68909315 13.6231884,10.7627338 13.6231884,12.0821476 C13.6231884,13.5712438 12.42682,14.7826087 10.95691,14.7826087" id="Fill-219" fill="#FFFFFF"></path>
                                <polygon id="Fill-220" fill="#FFFFFF" points="9.27536232 15.942029 11.0144928 15.942029 11.0144928 5.2173913 9.27536232 5.2173913"></polygon>
                            </g>
                            <g id="Group-21-Copy-5" transform="translate(21.000000, 48.000000)">
                                <g id="Oval-3">
                                    <use fill="black" fill-opacity="1" filter="url(#filter-25)" xlink:href="#path-24"></use>
                                    <use fill="url(#linearGradient-17)" fill-rule="evenodd" xlink:href="#path-24"></use>
                                </g>
                                <circle id="Oval-3-Copy" fill="#0055FF" cx="12.5" cy="12.5" r="10.6884058"></circle>
                                <path d="M13.6961375,18.4782609 L9.91145753,18.4782609 C9.0416105,18.4782609 8.33333333,17.7601543 8.33333333,16.8794038 L8.33333333,16.0604769 L10.5802816,16.0604769 L10.5802816,16.2031471 L13.6961375,16.2031471 C14.295449,16.2031471 14.7820373,15.7095083 14.7820373,15.1026845 C14.7820373,14.7079637 14.4654731,14.3864802 14.0756388,14.3864802 L11.28668,14.3864802 C9.65876978,14.3864802 8.33333333,13.0444294 8.33333333,11.3951621 L8.33333333,10.9852232 C8.33333333,9.1229018 9.82879388,7.60869565 11.6661813,7.60869565 L15.449922,7.60869565 C16.3207083,7.60869565 17.0289855,8.32680221 17.0289855,9.20755277 L17.0289855,10.1368112 L14.7820373,10.1368112 L14.7820373,9.88380941 L11.6661813,9.88380941 C11.0678092,9.88380941 10.5802816,10.3783994 10.5802816,10.9852232 L10.5802816,11.3951621 C10.5802816,11.7908341 10.8968458,12.1113664 11.28668,12.1113664 L14.0756388,12.1113664 C15.7035491,12.1113664 17.0289855,13.4534172 17.0289855,15.1026845 C17.0289855,16.9640547 15.533525,18.4782609 13.6961375,18.4782609" id="Fill-219" fill="#FFFFFF"></path>
                                <polygon id="Fill-220" fill="#FFFFFF" points="11.5942029 19.9275362 13.7681159 19.9275362 13.7681159 6.52173913 11.5942029 6.52173913"></polygon>
                            </g>
                            <g id="Group-21-Copy-6" transform="translate(117.000000, 30.000000)">
                                <g id="Oval-3">
                                    <use fill="black" fill-opacity="1" filter="url(#filter-27)" xlink:href="#path-26"></use>
                                    <use fill="#71ED9D" fill-rule="evenodd" xlink:href="#path-26"></use>
                                </g>
                                <circle id="Oval-3-Copy" fill="#23CF5F" cx="9" cy="9" r="7.69565217"></circle>
                                <path d="M9.86121901,13.3043478 L7.13624942,13.3043478 C6.50995956,13.3043478 6,12.7873111 6,12.1531707 L6,11.5635434 L7.61780274,11.5635434 L7.61780274,11.6662659 L9.86121901,11.6662659 C10.2927233,11.6662659 10.6430668,11.310846 10.6430668,10.8739328 C10.6430668,10.5897338 10.4151406,10.3582657 10.1344599,10.3582657 L8.12640963,10.3582657 C6.95431424,10.3582657 6,9.39198916 6,8.20451675 L6,7.90936069 C6,6.56848929 7.07673159,5.47826087 8.39965056,5.47826087 L11.1239438,5.47826087 C11.75091,5.47826087 12.2608696,5.99529759 12.2608696,6.62943799 L12.2608696,7.29850406 L10.6430668,7.29850406 L10.6430668,7.11634277 L8.39965056,7.11634277 C7.96882265,7.11634277 7.61780274,7.47244754 7.61780274,7.90936069 L7.61780274,8.20451675 C7.61780274,8.48940056 7.84572897,8.72018384 8.12640963,8.72018384 L10.1344599,8.72018384 C11.3065553,8.72018384 12.2608696,9.68646041 12.2608696,10.8739328 C12.2608696,12.2141194 11.184138,13.3043478 9.86121901,13.3043478" id="Fill-219" fill="#FFFFFF"></path>
                                <polygon id="Fill-220" fill="#FFFFFF" points="8.34782609 14.3478261 9.91304348 14.3478261 9.91304348 4.69565217 8.34782609 4.69565217"></polygon>
                            </g>
                            <g id="Group-21-Copy-7" transform="translate(0.000000, 190.000000)">
                                <g id="Oval-3">
                                    <use fill="black" fill-opacity="1" filter="url(#filter-29)" xlink:href="#path-28"></use>
                                    <use fill="#71ED9D" fill-rule="evenodd" xlink:href="#path-28"></use>
                                </g>
                                <circle id="Oval-3-Copy" fill="#23CF5F" cx="15" cy="15" r="12.826087"></circle>
                                <path d="M16.435365,22.173913 L11.893749,22.173913 C10.8499326,22.173913 10,21.3121852 10,20.2552845 L10,19.2725723 L12.6963379,19.2725723 L12.6963379,19.4437765 L16.435365,19.4437765 C17.1545388,19.4437765 17.7384447,18.85141 17.7384447,18.1232214 C17.7384447,17.6495564 17.3585677,17.2637762 16.8907666,17.2637762 L13.544016,17.2637762 C11.5905237,17.2637762 10,15.6533153 10,13.6741946 L10,13.1822678 C10,10.9474822 11.7945527,9.13043478 13.9994176,9.13043478 L18.5399063,9.13043478 C19.58485,9.13043478 20.4347826,9.99216265 20.4347826,11.0490633 L20.4347826,12.1641734 L17.7384447,12.1641734 L17.7384447,11.8605713 L13.9994176,11.8605713 C13.2813711,11.8605713 12.6963379,12.4540792 12.6963379,13.1822678 L12.6963379,13.6741946 C12.6963379,14.1490009 13.0762149,14.5336397 13.544016,14.5336397 L16.8907666,14.5336397 C18.8442589,14.5336397 20.4347826,16.1441007 20.4347826,18.1232214 C20.4347826,20.3568657 18.64023,22.173913 16.435365,22.173913" id="Fill-219" fill="#FFFFFF"></path>
                                <polygon id="Fill-220" fill="#FFFFFF" points="13.9130435 23.9130435 16.5217391 23.9130435 16.5217391 7.82608696 13.9130435 7.82608696"></polygon>
                            </g>
                            <g id="Group-21-Copy-8" transform="translate(24.000000, 337.000000)">
                                <g id="Oval-3">
                                    <use fill="black" fill-opacity="1" filter="url(#filter-31)" xlink:href="#path-30"></use>
                                    <use fill="#71ED9D" fill-rule="evenodd" xlink:href="#path-30"></use>
                                </g>
                                <circle id="Oval-3-Copy" fill="#23CF5F" cx="9" cy="9" r="7.69565217"></circle>
                                <path d="M9.86121901,13.3043478 L7.13624942,13.3043478 C6.50995956,13.3043478 6,12.7873111 6,12.1531707 L6,11.5635434 L7.61780274,11.5635434 L7.61780274,11.6662659 L9.86121901,11.6662659 C10.2927233,11.6662659 10.6430668,11.310846 10.6430668,10.8739328 C10.6430668,10.5897338 10.4151406,10.3582657 10.1344599,10.3582657 L8.12640963,10.3582657 C6.95431424,10.3582657 6,9.39198916 6,8.20451675 L6,7.90936069 C6,6.56848929 7.07673159,5.47826087 8.39965056,5.47826087 L11.1239438,5.47826087 C11.75091,5.47826087 12.2608696,5.99529759 12.2608696,6.62943799 L12.2608696,7.29850406 L10.6430668,7.29850406 L10.6430668,7.11634277 L8.39965056,7.11634277 C7.96882265,7.11634277 7.61780274,7.47244754 7.61780274,7.90936069 L7.61780274,8.20451675 C7.61780274,8.48940056 7.84572897,8.72018384 8.12640963,8.72018384 L10.1344599,8.72018384 C11.3065553,8.72018384 12.2608696,9.68646041 12.2608696,10.8739328 C12.2608696,12.2141194 11.184138,13.3043478 9.86121901,13.3043478" id="Fill-219" fill="#FFFFFF"></path>
                                <polygon id="Fill-220" fill="#FFFFFF" points="8.34782609 14.3478261 9.91304348 14.3478261 9.91304348 4.69565217 8.34782609 4.69565217"></polygon>
                            </g>
                            <g id="Group" transform="translate(368.000000, 205.000000)">
                                <path d="M44.0388542,177.030151 C44.0388542,177.030151 50.0477431,183.622995 56.8208333,186.053318 C62.1287153,187.958239 52.4197917,188.822756 48.1880208,188.483641 C43.95625,188.144526 41.0222222,185.601165 38.5395833,184.922935 C38.5395833,184.922935 38.3545139,180.293792 38.9065625,177.518928 C39.4586111,174.744517 44.0388542,177.030151 44.0388542,177.030151" id="Fill-3" fill="#3D3533"></path>
                                <path d="M38.5395833,184.922935 C38.5395833,184.922935 38.3703125,186.081804 38.5395833,186.279395 C38.7088542,186.477438 41.0244792,186.642022 41.5160417,186.56199 C42.0076042,186.482411 41.7557292,185.752636 41.7557292,185.752636 L38.5395833,184.922935" id="Fill-4" fill="#3D3533"></path>
                                <path d="M28.8888889,178.159629 C28.8888889,178.159629 21.3845486,183.849072 16.1935764,186.053318 C11.0026042,188.257565 20.5946181,188.822756 24.8263889,188.483641 C29.0581597,188.144526 31.9921875,185.601165 34.4748264,184.922935 C34.4748264,184.922935 34.6598958,180.293792 34.1082986,177.518928 C33.55625,174.744517 28.8888889,178.159629 28.8888889,178.159629" id="Fill-5" fill="#3D3533"></path>
                                <path d="M28.8888889,178.159629 C28.8888889,178.159629 32.2178819,180.533433 34.1082986,177.518928 L34.1082986,174.014742 L28.8888889,175.220634 L28.8888889,178.159629" id="Fill-6" fill="#FFBF9B"></path>
                                <path d="M38.8194444,174.731404 L38.8194444,177.6704 C38.8194444,177.6704 42.1484375,180.044203 44.0388542,177.030151 L44.0388542,173.525964 L38.8194444,174.731404" id="Fill-7" fill="#FFBF9B"></path>
                                <path d="M17.2092014,87.1638158 L26.0713194,175.333672 C26.0713194,175.333672 30.4944792,177.292852 34.4310417,174.12778 C34.4310417,174.12778 32.8620139,103.290761 33.5837847,102.084868 C34.3055556,100.878976 35.3685764,102.084868 35.3636111,103.893481 C35.3586458,105.702093 37.9920486,174.429366 37.9920486,174.429366 C37.9920486,174.429366 43.11125,178.11351 46.6844444,174.345718 L51.0069444,87.917555 C51.0069444,87.917555 34.3371528,86.4756388 27.5505208,86.3675742 C20.7638889,86.2595096 17.2092014,87.1638158 17.2092014,87.1638158" id="Fill-8" fill="#394765"></path>
                                <path d="M25.8984375,32.3777799 C25.8984375,32.3777799 19.8611111,31.4549354 16.9270833,34.1773493 C13.9930556,36.899311 7.74899306,44.9630096 7.74899306,44.9630096 L7.74899306,53.026256 L16.8237153,48.0525718 L16.8237153,89.1229952 C16.8237153,89.1229952 28.3418056,91.0826268 30.6840625,90.0273014 C33.0267708,88.9724282 33.5837847,87.5404593 33.5837847,87.5404593 C33.5837847,87.5404593 34.5538194,89.8224761 37.2129514,90.3392871 C39.8725347,90.8565502 52.2107986,89.0479378 52.2107986,89.0479378 L51.7594097,81.7379785 L40.5062847,82.5667751 L51.9661458,64.6502081 L51.796875,53.61089 C51.796875,53.61089 57.4017708,62.4459617 55.8968403,63.8024211 C54.3923611,65.1588804 40.4810069,74.0513756 40.4810069,74.0513756 L42.9979514,82.0395646 C42.9979514,82.0395646 58.2291667,78.2713206 63.4201389,70.6602273 C68.6111111,63.049134 57.6274653,36.9748206 51.0823264,35.7689282 C44.5371875,34.563488 26.4437153,29.0621411 25.8984375,32.3777799" id="Fill-9" fill="#0055FF"></path>
                                <path d="M26.9140625,33.2820861 C26.9140625,33.2820861 26.4626736,38.0862129 28.3246528,45.038067 C30.1866319,51.9899211 32.5072222,62.2198852 32.5072222,62.2198852 L39.0523611,33.9603158 L26.9140625,33.2820861" id="Fill-10" fill="#F9FAFF"></path>
                                <path d="M27.3722222,25.7840311 L27.5505208,30.9837919 C27.5505208,30.9837919 32.2928125,38.0676746 37.2129514,31.1343589 L37.2129514,25.0302919 L27.3722222,25.7840311" id="Fill-11" fill="#EDA382"></path>
                                <path d="M41.5986458,14.0280502 C40.7667361,13.915012 40.4746875,14.6746292 40.4746875,14.6746292 C40.4746875,14.6746292 37.8792014,19.1147727 39.5958333,20.7384545 C41.3129167,22.3616842 42.7316319,19.1147727 42.9573264,16.8540072 C43.1830208,14.5932416 42.4305556,14.1410885 41.5986458,14.0280502" id="Fill-12" fill="#FFAF8C"></path>
                                <path d="M22.9820139,14.0280502 C22.1501042,14.1410885 21.3976389,14.5932416 21.6233333,16.8540072 C21.8490278,19.1147727 23.2677431,22.3616842 24.9848264,20.7384545 C26.7014583,19.1147727 24.1059722,14.6746292 24.1059722,14.6746292 C24.1059722,14.6746292 23.8139236,13.915012 22.9820139,14.0280502" id="Fill-13" fill="#FFAF8C"></path>
                                <path d="M24.6291319,6.85961483 C24.6291319,6.85961483 23.4722222,8.35714593 23.5850694,12.4550096 C23.6979167,16.5524211 24.4995833,24.8892201 28.6550694,27.2630239 C32.8105556,29.6368278 36.1959722,27.3475766 37.6345486,25.1433301 C39.0735764,22.9390837 40.7319792,18.7001483 40.4810069,13.1897584 C40.2300347,7.67891627 38.5373264,6.15289952 36.9574653,5.5031555 C35.3776042,4.85295933 26.2089931,4.7684067 24.6291319,6.85961483" id="Fill-14" fill="#FFBF9B"></path>
                                <path d="M39.2915972,15.2692105 C39.27625,15.3279904 39.2532292,15.4346986 39.2220833,15.5821005 C39.1286458,16.0152632 38.910625,17.0298947 38.7422569,17.2907871 C38.6876389,17.3753397 38.6425,17.455823 38.5996181,17.5340455 C38.4420833,17.8152847 38.3387153,18.0015718 37.9252431,18.1607297 C37.3208333,18.3935885 36.3043056,18.5400861 35.5319792,18.3691722 C34.7835764,18.2032321 34.1534375,17.7420359 33.9634028,17.2216077 C33.8875694,17.0136172 33.7832986,16.6975622 33.6727083,16.3616124 C33.4415972,15.660323 33.3097917,15.2750885 33.2186111,15.0616722 C33.36125,14.9531555 33.6284722,14.786311 33.9119444,14.7026627 C34.4026042,14.5593301 35.6177431,14.3332536 37.0603819,14.3983636 L37.1163542,14.4010766 C38.0922569,14.4449354 39.3895486,14.5037153 39.8215278,14.5652081 C39.8346181,14.6343876 39.8445486,14.7112536 39.8472569,14.7695813 C39.6590278,14.8265526 39.3755556,14.9490861 39.2915972,15.2692105 Z M30.2123611,16.3381005 C30.0972569,16.6722416 29.9889236,16.9873923 29.9099306,17.1940263 C29.713125,17.7121938 29.0766667,18.1643469 28.3260069,18.3203397 C27.5514236,18.4808541 26.5376042,18.3203397 25.9359028,18.07889 C25.5246875,17.9143062 25.4235764,17.7271148 25.2701042,17.4436148 C25.228125,17.3649402 25.1838889,17.2835526 25.1310764,17.1985478 C24.9663194,16.9353947 24.7613889,15.9175981 24.6742708,15.4830789 C24.6449306,15.3352249 24.6232639,15.2285167 24.6088194,15.1692847 C24.529375,14.8478038 24.2472569,14.7216531 24.0599306,14.6624211 C24.0639931,14.6036411 24.0748264,14.5276794 24.0888194,14.4585 C24.52125,14.4028852 25.8189931,14.3617392 26.7957986,14.3305407 L26.8513194,14.3291842 C28.2948611,14.2830646 29.5072917,14.5258708 29.9956944,14.6764378 C30.2778125,14.762799 30.5432292,14.9341651 30.6840625,15.0444904 C30.5897222,15.2570024 30.4529514,15.6399761 30.2123611,16.3381005 Z M40.4746875,14.6746292 C40.4588889,14.5123062 40.4200694,14.3472703 40.3993056,14.281256 C40.3252778,14.0524665 40.1009375,14.0144856 39.1719792,13.9520885 C38.6136111,13.9145598 37.8688194,13.8811005 37.1479514,13.8480933 L37.0919792,13.8458325 C35.5545486,13.776201 34.2428125,14.0217201 33.7101736,14.1777129 C33.2353125,14.3169761 32.6268403,14.7062799 32.5478472,14.9210526 L32.5329514,14.9888756 C32.2910069,15.0734282 31.9863194,15.0973923 31.6220486,15.0603158 C31.5751042,15.05489 31.4527778,15.0417775 31.3715278,15.0069617 L31.3566319,14.9129139 C31.2803472,14.6967847 30.6777431,14.2997943 30.2046875,14.154201 C29.6743056,13.9909737 28.3657292,13.7269163 26.8278472,13.776201 L26.771875,13.7780096 C26.0505556,13.8006172 25.3053125,13.8241292 24.7464931,13.8539713 C23.8166319,13.9041603 23.5913889,13.9385239 23.5151042,14.1668612 C23.4929861,14.2324234 23.4519097,14.3970072 23.4347569,14.558878 C23.4216667,14.6791507 23.3823958,15.046299 23.7123611,15.1448684 L23.7755556,15.1625024 C23.9457292,15.2090742 23.976875,15.2325861 23.9895139,15.2850359 C24.0021528,15.3343206 24.0247222,15.4469067 24.0509028,15.5780311 C24.2075347,16.3579952 24.3772569,17.1460981 24.5754167,17.4635096 C24.6201042,17.5340455 24.6580208,17.6045813 24.6981944,17.6787344 C24.8638542,17.9852943 25.0511806,18.3325478 25.6727431,18.5821364 C26.1534722,18.7752057 26.8802083,18.9330072 27.6028819,18.9379809 C27.8994444,18.9397895 28.1951042,18.9158254 28.4731597,18.8588541 C29.4436458,18.6571938 30.2435069,18.073012 30.5107292,17.3699139 C30.5924306,17.1551411 30.7025694,16.8363732 30.8185764,16.499067 C30.9210417,16.2029067 31.0542014,15.8154115 31.1607292,15.5301029 C31.2916319,15.5757703 31.4284028,15.5970215 31.5489236,15.6092297 C31.6766667,15.6227943 31.7994444,15.6295766 31.9181597,15.6304809 C32.2183333,15.6327416 32.4882639,15.5938565 32.7265972,15.5165383 C32.8308681,15.8054641 32.9635764,16.2083325 33.0642361,16.5135359 C33.1761806,16.8531029 33.2813542,17.1736794 33.3603472,17.3889043 C33.6180903,18.0960718 34.4098264,18.6911053 35.3771528,18.905878 C35.6547569,18.9669187 35.9504167,18.9945 36.2465278,18.9967608 C36.9696528,19.0012823 37.6981944,18.8534282 38.1816319,18.6671411 C38.8063542,18.4261435 38.9986458,18.0811507 39.1679167,17.7768517 C39.2094444,17.7031507 39.2482639,17.6339713 39.2938542,17.5629833 C39.4965278,17.249189 39.6766319,16.4628947 39.8436458,15.6847392 C39.8720833,15.5545191 39.8964583,15.441933 39.9090972,15.3931005 C39.9226389,15.3411029 39.9542361,15.3175909 40.1257639,15.2737321 L40.1876042,15.2570024 C40.5198264,15.1629545 40.4850694,14.7953541 40.4746875,14.6746292 Z" id="Fill-15" fill="#635259"></path>
                                <path d="M29.9036111,35.3167751 C29.9036111,35.3167751 31.1471875,37.5775407 31.7673958,38.1427321 C31.7673958,38.1427321 30.2421528,44.4353469 29.6413542,47.0352273 C29.0401042,49.6351077 32.4295833,62.6720383 32.4295833,62.6720383 C32.4295833,62.6720383 35.5843403,50.6149234 35.7725694,49.6726364 C35.9607986,48.7308014 33.4402431,38.1427321 33.4402431,38.1427321 C33.4402431,38.1427321 34.0044792,37.6155215 34.8323264,36.1835526 C35.6597222,34.7515837 33.0132292,33.9417775 32.0418403,34.1773493 C31.0704514,34.4124689 29.9036111,35.3167751 29.9036111,35.3167751" id="Fill-16" fill="#152C5B"></path>
                                <path d="M28.4614236,15.4830789 C28.1395833,15.8154115 27.5767014,15.9903947 27.2932292,15.5106603 C26.9971181,15.0101268 26.2166667,15.4645407 26.5132292,15.9668828 C27.0941667,16.9489593 28.3657292,16.8811364 29.0996875,16.1224234 C29.5045833,15.704634 28.8667708,15.0643852 28.4614236,15.4830789" id="Fill-17" fill="#3F2825"></path>
                                <path d="M36.4455903,15.4830789 C36.12375,15.8154115 35.5608681,15.9903947 35.2769444,15.5106603 C34.9812847,15.0101268 34.2003819,15.4645407 34.4973958,15.9668828 C35.0778819,16.9489593 36.3494444,16.8811364 37.0838542,16.1224234 C37.4882986,15.704634 36.8509375,15.0643852 36.4455903,15.4830789" id="Fill-18" fill="#3F2825"></path>
                                <path d="M33.5025347,23.1253708 C32.9094097,23.7181435 31.5313194,23.6408254 30.8736458,23.1855072 C30.3951736,22.8536268 29.9428819,23.6372081 30.4181944,23.9663756 C31.4162153,24.6577177 33.2614931,24.6432488 34.1407986,23.7647153 C34.5529167,23.353256 33.9146528,22.7139115 33.5025347,23.1253708" id="Fill-19" fill="#DB6A5A"></path>
                                <path d="M38.1807292,11.0415789 C36.7895486,10.7992249 35.4222917,10.8512225 34.0609028,11.2373612 C33.2240278,11.4747416 33.5797222,12.7837249 34.4211111,12.544988 C35.5392014,12.2280287 36.6726389,12.1498062 37.8205208,12.3496579 C38.6727431,12.4984163 39.0388194,11.1912416 38.1807292,11.0415789" id="Fill-20" fill="#5A424E"></path>
                                <path d="M29.6165278,11.2373612 C28.2555903,10.8512225 26.8878819,10.7992249 25.4967014,11.0415789 C24.6386111,11.1912416 25.0046875,12.4984163 25.8569097,12.3496579 C27.0047917,12.1498062 28.1382292,12.2280287 29.2563194,12.544988 C30.0977083,12.7837249 30.4538542,11.4747416 29.6165278,11.2373612" id="Fill-21" fill="#5A424E"></path>
                                <path d="M38.3116319,7.0006866 C38.3964931,7.0006866 39.8337153,8.03611722 40.4810069,13.9810263 C40.6534375,15.5635622 40.4065278,16.6980144 40.4065278,16.6980144 C40.4065278,16.6980144 43.2204861,8.89430383 40.2020486,5.47466986 C37.1831597,2.05548804 38.3116319,7.0006866 38.3116319,7.0006866" id="Fill-22" fill="#755D69"></path>
                                <path d="M40.0043403,6.37897608 C38.9137847,7.85525598 38.1707986,8.92233732 32.6412847,7.14221053 C27.1117708,5.36163158 23.1255556,7.0006866 23.4257292,10.6744306 C23.4257292,10.6744306 21.0347222,8.25993301 23.4099306,3.94910526 C25.7855903,-0.362174641 32.6602431,-0.883507177 37.5135764,1.15118182 C40.6814236,2.4791555 40.7753125,5.336311 40.0043403,6.37897608" id="Fill-23" fill="#5A424E"></path>
                                <path d="M13.8802083,21.903201 C13.8039236,21.7625813 16.2874653,16.643756 18.9208681,15.2936268 C21.5538194,13.9430455 24.0387153,12.5865861 24.7464931,13.8539713 C25.1382986,14.5561651 23.3805903,15.6562536 23.2465278,16.6980144 C23.1124653,17.739323 24.2088889,19.1147727 23.5773958,20.5842703 C22.9454514,22.0537679 18.28125,24.4628397 17.7923958,24.4569617 C16.16875,24.4379713 14.8204514,23.6363038 13.8802083,21.903201" id="Fill-24" fill="#FCBD99"></path>
                                <path d="M19.6354167,40.4034976 C19.6354167,40.4034976 24.7798958,40.8556507 24.8033681,41.6469187 C24.8263889,42.4381866 22.3581944,45.8293349 22.3581944,45.8293349 C22.3581944,45.8293349 31.0754167,57.8113923 32.4295833,62.6720383 C32.4295833,62.6720383 28.8324653,36.7862727 25.8984375,32.3777799 C25.8984375,32.3777799 20.1996528,38.8774809 19.6354167,40.4034976" id="Fill-25" fill="#152C5B"></path>
                                <path d="M45.5975,40.4034976 C45.0332639,38.8774809 39.0090278,32.3777799 39.0090278,32.3777799 C36.075,36.7862727 32.4295833,62.6720383 32.4295833,62.6720383 C33.78375,57.8113923 42.8742708,45.8293349 42.8742708,45.8293349 C42.8742708,45.8293349 40.4065278,42.4381866 40.4295486,41.6469187 C40.4525694,40.8556507 45.5975,40.4034976 45.5975,40.4034976" id="Fill-26" fill="#152C5B"></path>
                                <path d="M27.5144097,29.9280144 L25.0073958,32.679366 C25.0073958,32.679366 26.6545139,37.1253876 30.2164236,38.934 C30.2164236,38.934 32.1239931,34.675622 32.6882292,34.4310072 C33.2524653,34.1863923 35.3965625,38.934 35.3965625,38.934 C35.3965625,38.934 38.2886111,35.7761627 39.8517708,33.3232321 L37.2129514,29.7778995 C37.2129514,29.7778995 33.2493056,39.0081531 27.5144097,29.9280144" id="Fill-27" fill="#F9FAFF"></path>
                                <polyline id="Fill-28" fill="#E5E8ED" points="37.7099306 60.4442799 39.4522917 86.3675742 57.1571181 85.0866244 55.5221875 59.6276914 37.7099306 60.4442799"></polyline>
                                <path d="M41.5986458,74.8051148 C41.0763889,74.8801722 40.6254514,75.0311914 38.1048958,76.8398038 C35.5843403,78.6484163 35.0580208,82.6422847 35.5094097,85.2046364 C35.9607986,87.7665359 38.7779167,86.4855861 39.8517708,83.848177 C40.9260764,81.2103158 44.0104167,81.3613349 45.0635069,79.8538565 C46.1170486,78.3468301 41.5986458,74.8051148 41.5986458,74.8051148" id="Fill-29" fill="#FFBF9B"></path>
                                <path d="M50.7058681,52.1974593 C52.0036111,55.1875478 54.3169792,64.4037847 52.8125,65.760244 C51.3080208,67.1167033 40.4810069,74.0513756 40.4810069,74.0513756 L42.9979514,82.0395646 C42.9979514,82.0395646 58.2291667,78.2713206 63.4201389,70.6602273 C68.6111111,63.049134 57.6274653,36.9748206 51.0823264,35.7689282 C44.5371875,34.563488 47.8282639,45.5657297 50.7058681,52.1974593" id="Fill-30" fill="#152C5B"></path>
                                <path d="M11.6796875,24.4569617 C11.4991319,24.2313373 -0.169270833,42.4947057 0.225694444,49.107445 C0.620659722,55.7201842 4.66420139,55.1364545 7.74899306,53.026256 C10.8333333,50.9160574 17.2092014,27.517134 17.2092014,27.517134 C17.2092014,27.517134 14.3880208,27.8399713 11.6796875,24.4569617" id="Fill-31" fill="#152C5B"></path>
                                <path d="M14.178125,21.1761388 C14.178125,21.1761388 13.4852431,21.2272321 11.6796875,24.4569617 C11.6796875,24.4569617 14.2751736,28.2518828 17.2092014,27.517134 L18.9019097,24.3941124 C18.9019097,24.3941124 15.4347917,24.2177727 14.178125,21.1761388" id="Fill-32" fill="#3D3533"></path>
                                <path d="M16.3348611,24.8186842 C16.3348611,23.8275646 15.5327431,23.0240885 14.5432986,23.0240885 C13.5538542,23.0240885 12.7517361,23.8275646 12.7517361,24.8186842 C12.7517361,25.8098038 13.5538542,26.6128278 14.5432986,26.6128278 C15.5327431,26.6128278 16.3348611,25.8098038 16.3348611,24.8186842" id="Fill-33" fill="#E5E8ED"></path>
                                <path d="M30.8072917,69.1152201 L30.8637153,69.1152201 C31.3358681,69.1152201 31.7881597,68.6992392 31.7664931,68.2109139 C31.744375,67.7212321 31.3697222,67.3066077 30.8637153,67.3066077 L30.8072917,67.3066077 C30.3351389,67.3066077 29.8828472,67.7225885 29.9045139,68.2109139 C29.9266319,68.7010478 30.3012847,69.1152201 30.8072917,69.1152201" id="Fill-34" fill="#E5E8ED"></path>
                                <path d="M30.8637153,74.8051148 L30.8072917,74.8051148 C30.3351389,74.8051148 29.8828472,75.2210957 29.9045139,75.7094211 C29.9266319,76.1991029 30.3012847,76.6137273 30.8072917,76.6137273 L30.8637153,76.6137273 C31.3358681,76.6137273 31.7881597,76.1977464 31.7664931,75.7094211 C31.744375,75.2192871 31.3697222,74.8051148 30.8637153,74.8051148" id="Fill-35" fill="#E5E8ED"></path>
                                <polyline id="Fill-36" fill="#3D3533" points="42.1985417 59.2845072 42.3551736 61.4286172 49.9795833 60.8810598 49.8410069 58.8585789 42.1985417 59.2845072"></polyline>
                                <path d="M34.4748264,184.922935 C34.4748264,184.922935 34.6440972,186.081804 34.4748264,186.279395 C34.3055556,186.477438 31.9899306,186.642022 31.4983681,186.56199 C31.0068056,186.482411 31.2586806,185.752636 31.2586806,185.752636 L34.4748264,184.922935" id="Fill-37" fill="#3D3533"></path>
                                <path d="M23.9001389,181.182725 C23.4135417,181.496971 23.8653819,182.2801 24.3560417,181.963593 C25.0584028,181.510988 26.52,181.921091 27.1054514,182.433833 C27.5410417,182.81545 28.1820139,182.178366 27.7437153,181.794036 C26.853125,181.014072 24.9667708,180.495452 23.9001389,181.182725" id="Fill-38" fill="#BEC2C6"></path>
                                <path d="M29.4752431,180.134182 C28.5340972,179.272378 27.2571181,178.961297 26.0302431,179.327541 C25.4750347,179.493933 25.7111111,180.366589 26.2699306,180.199744 C27.1853472,179.926644 28.1273958,180.124234 28.8369792,180.773978 C29.2648958,181.165995 29.9049653,180.528007 29.4752431,180.134182" id="Fill-39" fill="#BEC2C6"></path>
                                <path d="M49.1142708,181.182725 C48.0480903,180.495452 46.1612847,181.014072 45.2706944,181.794036 C44.8323958,182.178366 45.4738194,182.81545 45.9094097,182.433833 C46.4944097,181.921091 47.9564583,181.510988 48.6583681,181.963593 C49.1490278,182.2801 49.6013194,181.496971 49.1142708,181.182725" id="Fill-40" fill="#BEC2C6"></path>
                                <path d="M46.7444792,180.199744 C47.3032986,180.366589 47.5398264,179.493933 46.9841667,179.327541 C45.7577431,178.961297 44.4803125,179.272378 43.5391667,180.134182 C43.1094444,180.528007 43.7495139,181.165995 44.1774306,180.773978 C44.8865625,180.124234 45.8295139,179.926644 46.7444792,180.199744" id="Fill-41" fill="#BEC2C6"></path>
                            </g>
                        </g>
                    </g>
                </g>
            </g>
        </g>
    </g>
</svg>