<?xml version="1.0" encoding="UTF-8"?>
<svg width="213px" height="40px" viewBox="0 0 213 40" version="1.1" xmlns="http://www.w3.org/2000/svg" xmlns:xlink="http://www.w3.org/1999/xlink">
    <!-- Generator: Sketch 50.2 (55047) - http://www.bohemiancoding.com/sketch -->
    <title>Logo</title>
    <desc>Created with Sketch.</desc>
    <defs></defs>
    <g id="Page-1" stroke="none" stroke-width="1" fill="none" fill-rule="evenodd">
        <g id="Landing-page-Final" transform="translate(-200.000000, -48.000000)">
            <g id="Group">
                <g id="Group-4" transform="translate(200.000000, 48.000000)">
                    <g id="Logo">
                        <g id="Group-7">
                            <text id="MERCYCIRCLES" font-family="Rubik-Medium, Rubik" font-size="22" font-weight="400" letter-spacing="-0.522500038" fill="#394765">
                                <tspan x="52.0790002" y="28">MERCYCIRCLES</tspan>
                            </text>
                            <path d="M0.280909091,25.693573 C5.04181818,24.3497528 8.78045455,23.3412135 8.78045455,23.3412135 C8.78045455,23.3412135 7.42090909,8.55155056 22.04,9.55964045 C24.0795455,6.19829213 25.4390909,0.81941573 25.4390909,0.81941573 C25.4390909,0.81941573 23.4740909,0.44952809 20.6372727,0.44952809 C12.6577273,0.44952809 -2.22590909,3.37582022 0.280909091,25.693573" id="Fill-1" fill="#0055FF"></path>
                            <path d="M3.34227273,31.0715506 C3.34227273,34.0427865 5.77636364,36.4508764 8.78045455,36.4508764 C11.7854545,36.4508764 14.2204545,34.0427865 14.2204545,31.0715506 C14.2204545,28.1012135 11.7854545,25.693573 8.78045455,25.693573 C5.77636364,25.693573 3.34227273,28.1012135 3.34227273,31.0715506" id="Fill-4" fill="#0055FF"></path>
                            <path d="M30.7881818,16.9852584 C30.7881818,16.9852584 32.2909091,31.7623371 17.6622727,30.8895281 C15.6554545,34.2702022 14.3468182,39.6621124 14.3468182,39.6621124 C14.3468182,39.6621124 16.1618182,39.9861573 18.8177273,39.9884045 L18.8545455,39.9884045 C26.1,39.9866067 39.5390909,37.5798652 39.5936364,19.770427 L39.5936364,19.5560449 C39.5890909,18.0059326 39.4836364,16.3425618 39.2654545,14.5533483 C34.5177273,15.9412135 30.7881818,16.9852584 30.7881818,16.9852584" id="Fill-7" fill="#0055FF"></path>
                            <path d="M30.6636364,3.87649438 C27.6590909,3.90525843 25.2481818,6.33537079 25.2759091,9.30525843 C25.3040909,12.2760449 27.7631818,14.6603146 30.7659091,14.6328989 C33.77,14.6041348 36.1827273,12.1740225 36.1536364,9.20323596 C36.1263636,6.25042697 33.695,3.87604494 30.7154545,3.87604494 C30.6981818,3.87604494 30.6809091,3.87604494 30.6636364,3.87649438" id="Fill-10" fill="#0055FF"></path>
                        </g>
                    </g>
                </g>
            </g>
        </g>
    </g>
</svg>