<?xml version="1.0" encoding="UTF-8"?>
<svg width="382px" height="602px" viewBox="0 0 382 602" version="1.1" xmlns="http://www.w3.org/2000/svg" xmlns:xlink="http://www.w3.org/1999/xlink">
    <!-- Generator: Sketch 50.2 (55047) - http://www.bohemiancoding.com/sketch -->
    <title>Group 25</title>
    <desc>Created with Sketch.</desc>
    <defs></defs>
    <g id="Page-1" stroke="none" stroke-width="1" fill="none" fill-rule="evenodd" opacity="0.0150111607">
        <g id="Landing-page-Final" transform="translate(0.000000, -136.000000)" fill="#0055FF">
            <g id="Group-19" transform="translate(0.000000, 136.000000)">
                <g id="Group-22">
                    <g id="Group-11" transform="translate(-298.000000, -45.000000)">
                        <g id="Group-25">
                            <path d="M442.652098,352.885855 C442.652098,352.885855 483.11014,750.668837 89.2622378,727.173763 C35.2325175,818.177856 0,963.322247 0,963.322247 C0,963.322247 48.8653846,972.045187 120.370629,972.105679 L121.361888,972.105679 C316.431818,972.057285 678.253497,907.270404 679.722028,427.859581 L679.722028,422.088649 C679.59965,380.3613 676.76049,335.585156 670.886364,287.421464 C543.062937,324.781294 442.652098,352.885855 442.652098,352.885855" id="Fill-7"></path>
                            <path d="M439.298951,0.0120983905 C358.407343,0.786395384 293.498252,66.202393 294.244755,146.148558 C295.003497,226.118919 361.20979,290.300881 442.052448,289.562879 C522.931818,288.788582 587.88986,223.372584 587.106643,143.402223 C586.372378,63.9157971 520.912587,0 440.694056,0 C440.229021,0 439.763986,0 439.298951,0.0120983905" id="Fill-10"></path>
                        </g>
                    </g>
                </g>
            </g>
        </g>
    </g>
</svg>