<?xml version="1.0" encoding="UTF-8"?>
<svg width="20px" height="22px" viewBox="0 0 20 22" version="1.1" xmlns="http://www.w3.org/2000/svg" xmlns:xlink="http://www.w3.org/1999/xlink">
    <!-- Generator: Sketch 50.2 (55047) - http://www.bohemiancoding.com/sketch -->
    <title>flaticon1527613521-svg</title>
    <desc>Created with Sketch.</desc>
    <defs></defs>
    <g id="Page-1" stroke="none" stroke-width="1" fill="none" fill-rule="evenodd">
        <g id="Landing-page-Final" transform="translate(-837.000000, -2614.000000)" fill-rule="nonzero">
            <g id="Group-15" transform="translate(837.000000, 2614.000000)">
                <g id="Group-9">
                    <g id="flaticon1527613521-svg">
                        <path d="M4.66666667,9.0234375 C3.56382222,9.0234375 2.66666667,9.89080469 2.66666667,10.9570312 L2.66666667,16.1992187 C2.66666667,17.2654453 3.56382222,18.1328125 4.66666667,18.1328125 C5.76951111,18.1328125 6.66666667,17.2654453 6.66666667,16.1992187 L6.66666667,10.9570312 C6.66666667,9.89080469 5.76951111,9.0234375 4.66666667,9.0234375 Z" id="Shape" fill="#FFFFFF"></path>
                        <path d="M1.33333333,10.9570313 C1.33333333,10.7711055 1.35871111,10.5914961 1.39013333,10.4141641 C0.586666667,10.6652305 0,11.3867617 0,12.2460938 L0,14.9101562 C0,15.7694883 0.586666667,16.4910195 1.39013333,16.7420859 C1.35871111,16.5647539 1.33333333,16.3851445 1.33333333,16.1992188 L1.33333333,10.9570313 Z" id="Shape" fill="#FFFFFF"></path>
                        <path d="M15.3333333,9.0234375 C14.2304889,9.0234375 13.3333333,9.89080469 13.3333333,10.9570312 L13.3333333,16.1992188 C13.3333333,17.2654453 14.2304889,18.1328125 15.3333333,18.1328125 C15.5337778,18.1328125 15.7236444,18.0955156 15.9063111,18.0422344 C15.6581333,18.837543 14.9024444,19.421875 14,19.421875 L11.8772,19.421875 C11.6010667,18.6732734 10.868,18.1328125 10,18.1328125 C8.89715556,18.1328125 8,19.0001797 8,20.0664062 C8,21.1326328 8.89715556,22 10,22 C10.868,22 11.6010667,21.4595391 11.8772,20.7109375 L14,20.7109375 C15.8379111,20.7109375 17.3333333,19.265168 17.3333333,17.4882812 L17.3333333,16.1992188 L17.3333333,10.9570312 C17.3333333,9.89080469 16.4361778,9.0234375 15.3333333,9.0234375 Z" id="Shape" fill="#0DCD57"></path>
                        <path d="M18.6098667,10.4141641 C18.6412889,10.5914961 18.6666667,10.7711055 18.6666667,10.9570312 L18.6666667,16.1992188 C18.6666667,16.3851445 18.6412889,16.5647539 18.6098667,16.7420859 C19.4133333,16.4910195 20,15.7694883 20,14.9101562 L20,12.2460938 C20,11.3867617 19.4133333,10.6652305 18.6098667,10.4141641 Z" id="Shape" fill="#FFFFFF"></path>
                        <path d="M10,0 C4.48568889,0 0,4.33675 0,9.66796875 L0,9.68442578 C0.3972,9.39369922 0.856755556,9.18096094 1.36386667,9.08569922 C1.67546667,4.73734766 5.42462222,1.2890625 10,1.2890625 C14.5753778,1.2890625 18.3245333,4.73734766 18.6361333,9.08565625 C19.1432,9.18091797 19.6027556,9.39369922 20,9.68442578 L20,9.66796875 C20,4.33675 15.5143111,0 10,0 Z" id="Shape" fill="#FFFFFF"></path>
                    </g>
                </g>
            </g>
        </g>
    </g>
</svg>