<?xml version="1.0" encoding="UTF-8"?>
<svg width="25px" height="23px" viewBox="0 0 25 23" version="1.1" xmlns="http://www.w3.org/2000/svg" xmlns:xlink="http://www.w3.org/1999/xlink">
    <!-- Generator: Sketch 50.2 (55047) - http://www.bohemiancoding.com/sketch -->
    <title>flaticon1527613458-svg</title>
    <desc>Created with Sketch.</desc>
    <defs></defs>
    <g id="Page-1" stroke="none" stroke-width="1" fill="none" fill-rule="evenodd">
        <g id="Landing-page-Final" transform="translate(-837.000000, -2417.000000)" fill-rule="nonzero">
            <g id="Group-16" transform="translate(837.000000, 2417.000000)">
                <g id="Group-6">
                    <g id="flaticon1527613458-svg">
                        <path d="M11.5973958,9.58997778 L11.9088542,7.6222 L11.7520833,7.37431111 C11.7296875,7.34006667 11.7338542,7.29508889 11.7619792,7.26493333 L12.1708333,6.83151111 C12.20625,6.79471111 12.2708333,6.79471111 12.30625,6.83151111 L12.7151042,7.26493333 C12.7432292,7.29508889 12.7473958,7.33955556 12.725,7.37431111 L12.5682292,7.6222 L12.8796875,9.58946667 C15.3395833,9.54908889 16.8291667,9.2736 16.8291667,8.98635556 C16.8291667,7.58335556 15.8572917,7.52151111 14.7770833,7.17497778 C14.1114583,6.96286667 13.2864583,6.84326667 13.4635417,5.7178 C13.9020833,5.32424444 14.0546875,4.51413333 14.0546875,4.51413333 C14.0546875,4.51413333 14.6385417,4.22535556 14.7057292,3.67233333 C14.7552083,3.25066667 14.5307292,3.05491111 14.5307292,3.05491111 C14.5307292,3.05491111 14.5307292,3.02475556 14.5307292,2.52028889 C14.5307292,1.3294 13.4911458,0.391511111 12.240625,0.391511111 C10.9895833,0.391511111 9.95,1.3294 9.95,2.52028889 C9.95,3.02475556 9.95,3.05491111 9.95,3.05491111 C9.95,3.05491111 9.72604167,3.25066667 9.77552083,3.67233333 C9.8421875,4.22535556 10.4260417,4.51413333 10.4260417,4.51413333 C10.4260417,4.51413333 10.5791667,5.32475556 11.0177083,5.7178 C11.19375,6.84275556 10.3692708,6.96286667 9.70364583,7.17497778 C8.62291667,7.52151111 7.6515625,7.58335556 7.6515625,8.98635556 C7.6484375,9.27308889 9.1375,9.54908889 11.5973958,9.58997778 Z" id="Shape" fill="#FFFFFF"></path>
                        <path d="M7.12604167,20.1955333 C6.46041667,19.9829111 5.63541667,19.8638222 5.81197917,18.7373333 C6.25052083,18.3437778 6.40364583,17.5341778 6.40364583,17.5341778 C6.40364583,17.5341778 6.98697917,17.2464222 7.05416667,16.6928889 C7.10364583,16.2707111 6.8796875,16.0749556 6.8796875,16.0749556 C6.8796875,16.0749556 6.8796875,16.0442889 6.8796875,15.5408444 C6.8796875,14.3499556 5.84010417,13.4115556 4.5890625,13.4115556 C3.33802083,13.4115556 2.2984375,14.3499556 2.2984375,15.5408444 C2.2984375,16.0448 2.2984375,16.0749556 2.2984375,16.0749556 C2.2984375,16.0749556 2.07447917,16.2707111 2.12395833,16.6928889 C2.190625,17.2459111 2.77447917,17.5341778 2.77447917,17.5341778 C2.77447917,17.5341778 2.92760417,18.3442889 3.36614583,18.7373333 C3.5421875,19.8628 2.71770833,19.9829111 2.05208333,20.1955333 C0.971354167,20.5410444 0,20.6039111 0,22.0064 C0,22.2936444 1.4890625,22.5701556 3.94947917,22.6105333 L4.2609375,20.6427556 L4.10416667,20.3943556 C4.08177083,20.3596 4.0859375,20.3156444 4.1140625,20.2854889 L4.52291667,19.8510444 C4.55833333,19.8152667 4.62291667,19.8152667 4.65833333,19.8510444 L5.0671875,20.2854889 C5.0953125,20.3156444 5.09947917,20.3601111 5.07708333,20.3943556 L4.9203125,20.6422444 L5.23177083,22.6095111 C7.69166667,22.5696444 9.18125,22.2931333 9.18125,22.0058889 C9.178125,20.6039111 8.20625,20.5410444 7.12604167,20.1955333 Z" id="Shape" fill="#FFFFFF"></path>
                        <path d="M22.4255208,20.1955333 C21.7604167,19.9829111 20.9354167,19.8638222 21.1119792,18.7373333 C21.5505208,18.3437778 21.7036458,17.5341778 21.7036458,17.5341778 C21.7036458,17.5341778 22.2869792,17.2464222 22.3541667,16.6928889 C22.4036458,16.2707111 22.1796875,16.0749556 22.1796875,16.0749556 C22.1796875,16.0749556 22.1796875,16.0442889 22.1796875,15.5408444 C22.1796875,14.3499556 21.1401042,13.4115556 19.8890625,13.4115556 C18.6385417,13.4115556 17.5989583,14.3499556 17.5989583,15.5408444 C17.5989583,16.0448 17.5989583,16.0749556 17.5989583,16.0749556 C17.5989583,16.0749556 17.3744792,16.2707111 17.4244792,16.6928889 C17.4911458,17.2459111 18.075,17.5341778 18.075,17.5341778 C18.075,17.5341778 18.228125,18.3442889 18.6666667,18.7373333 C18.8427083,19.8628 18.01875,19.9829111 17.3526042,20.1955333 C16.2723958,20.5415556 15.3010417,20.6039111 15.3010417,22.0064 C15.3010417,22.2936444 16.7901042,22.5701556 19.2505208,22.6105333 L19.5625,20.6427556 L19.4052083,20.3948667 C19.3828125,20.3601111 19.3875,20.3161556 19.4151042,20.286 L19.8239583,19.8515556 C19.859375,19.8157778 19.9239583,19.8157778 19.959375,19.8515556 L20.3682292,20.286 C20.396875,20.3161556 20.4005208,20.3606222 20.3786458,20.3948667 L20.221875,20.6427556 L20.5333333,22.6100222 C22.9932292,22.5701556 24.4828125,22.2936444 24.4828125,22.0064 C24.4776042,20.6039111 23.5057292,20.5410444 22.4255208,20.1955333 Z" id="Shape" fill="#FFFFFF"></path>
                        <path d="M15.8838542,18.0555111 C16.059375,18.0555111 16.2333333,17.9814 16.3541667,17.8388 C16.5708333,17.5837556 16.5354167,17.2050222 16.2755208,16.9934222 L12.85,14.1956 L12.85,10.8994444 C12.85,10.5677333 12.5760417,10.2988889 12.2380208,10.2988889 C11.9,10.2988889 11.6260417,10.5677333 11.6260417,10.8994444 L11.6260417,14.1956 L8.20052083,16.9934222 C7.940625,17.2050222 7.90520833,17.5837556 8.12135417,17.8388 C8.3375,18.0938444 8.7234375,18.1280889 8.98333333,17.9154667 L12.2380208,15.2582 L15.4927083,17.9154667 C15.6067708,18.0095111 15.7447917,18.0555111 15.8838542,18.0555111 Z" id="Shape" fill="#0DCD57"></path>
                    </g>
                </g>
            </g>
        </g>
    </g>
</svg>