<?xml version="1.0" encoding="UTF-8"?>
<svg width="20px" height="20px" viewBox="0 0 20 20" version="1.1" xmlns="http://www.w3.org/2000/svg" xmlns:xlink="http://www.w3.org/1999/xlink">
    <!-- Generator: Sketch 50.2 (55047) - http://www.bohemiancoding.com/sketch -->
    <title>flaticon1527613597-svg</title>
    <desc>Created with Sketch.</desc>
    <defs></defs>
    <g id="Page-1" stroke="none" stroke-width="1" fill="none" fill-rule="evenodd">
        <g id="Landing-page-Final" transform="translate(-837.000000, -2811.000000)" fill="#FFFFFF" fill-rule="nonzero">
            <g id="Group-14" transform="translate(837.000000, 2810.000000)">
                <g id="Group-12">
                    <g id="flaticon1527613597-svg" transform="translate(0.000000, 1.000000)">
                        <path d="M15.948888,11.9645946 C15.5512181,11.9645946 15.2529657,12.0642055 14.9547132,12.0642055 L12.0716064,9.17548959 L14.4576258,6.78482811 L17.5395676,5.68910827 L19.8261695,2.00350515 C19.925587,1.80428336 19.925587,1.50545068 19.8261695,1.40583978 L18.6331598,0.210509044 C18.4343249,0.0112872542 18.1360725,0.0112872542 17.9372375,0.110898149 L14.1593734,2.30233784 L12.9663637,5.48988648 L10.5803443,7.88054795 L7.89607245,4.991832 C7.89607245,4.69299932 7.99548993,4.39416663 7.99548993,3.99572305 C7.99548993,1.40583978 5.51005303,-0.486767221 3.02461614,0.110898149 L4.51587828,1.60506157 C5.31121808,2.40194873 5.31121808,3.59727947 4.51587828,4.39416663 C3.72053847,5.19105379 2.52752876,5.19105379 1.73218896,4.39416663 L0.141509344,2.9996141 C-0.653830462,5.88833006 2.03044138,8.67743511 5.01296565,7.78093706 L7.89607245,10.669653 L6.70306274,11.8649838 C6.00714041,11.665762 5.31121808,11.8649838 4.8141307,12.3630382 L0.738014199,16.4470849 C-0.0573256072,17.2439721 -0.156743083,18.4393028 0.539179247,19.23619 C1.33451905,20.132688 2.62694624,20.132688 3.42228604,19.3358009 L7.59782002,15.1521433 C8.0949074,14.6540888 8.29374235,13.8572017 8.0949074,13.2595363 L9.28791711,12.0642055 L12.1710239,14.9529215 C12.0716064,15.2517542 12.0716064,15.6501978 12.0716064,15.9490304 C12.0716064,18.5389137 14.5570433,20.4315207 17.0424802,19.8338553 L15.5512181,18.3396919 C14.7558783,17.5428048 14.7558783,16.347474 15.5512181,15.5505869 C16.3465579,14.7536997 17.5395676,14.7536997 18.3349074,15.5505869 L19.8261695,17.0447503 C20.5220919,14.454867 18.5337424,11.9645946 15.948888,11.9645946 Z" id="Shape"></path>
                    </g>
                </g>
            </g>
        </g>
    </g>
</svg>